<?xml version="1.0" encoding="utf-8"?>
<!-- Generator: Adobe Illustrator 16.0.0, SVG Export Plug-In . SVG Version: 6.00 Build 0)  -->
<!DOCTYPE svg PUBLIC "-//W3C//DTD SVG 1.1//EN" "http://www.w3.org/Graphics/SVG/1.1/DTD/svg11.dtd">
<svg version="1.1" id="图层_1" xmlns="http://www.w3.org/2000/svg" xmlns:xlink="http://www.w3.org/1999/xlink" x="0px" y="0px"
	 width="750px" height="1334px" viewBox="0 0 750 1334" enable-background="new 0 0 750 1334" xml:space="preserve">
<rect x="783" y="842" fill="#FFFFFF" width="750" height="492"/>
<rect x="782.5" y="300.5" fill="#979595" stroke="#040000" stroke-miterlimit="10" width="750" height="542"/>
<rect fill="#3270B0" width="750" height="120"/>
<g>
	<path fill="#5B91B6" d="M720.011,83.558c0,9.33-4.431,18.6-12.191,18.6H567.271c-7.762,0-15.907-9.27-15.907-18.6V71.273
		c0-9.329,8.146-15.349,15.907-15.349h140.549c7.761,0,12.191,6.02,12.191,15.349V83.558z"/>
	<line fill="none" stroke="#C8C9CA" stroke-width="2" stroke-miterlimit="10" x1="641" y1="63" x2="641" y2="93"/>
	<g>
		<circle fill="#FFFFFF" cx="587.958" cy="77.295" r="2.368"/>
		<circle fill="#FFFFFF" cx="598.834" cy="76.74" r="4.031"/>
		<circle fill="#FFFFFF" cx="609.262" cy="77.295" r="2.368"/>
	</g>
	<circle fill="none" stroke="#FFFFFF" stroke-miterlimit="10" cx="674.623" cy="77.256" r="9.981"/>
	<circle fill="#FFFFFF" cx="674.623" cy="77.256" r="4.031"/>
</g>
<text transform="matrix(1 0 0 1 31.4355 94.7231)" fill="#FFFFFF" font-family="'FZCQJW--GB1-0'" font-size="52.5384" letter-spacing="10">俏苗学车</text>
<g>
	<path fill="#4EA1D9" d="M646.268,1287.848c0,0.655-0.531,1.186-1.186,1.186h-7.711c-0.656,0-1.188-0.53-1.188-1.186v-7.316
		c0-0.655,0.531-1.186,1.188-1.186h7.711c0.654,0,1.186,0.53,1.186,1.186V1287.848z"/>
	<path fill="#4EA1D9" d="M630.449,1287.848c0,0.655-0.529,1.186-1.186,1.186h-7.711c-0.656,0-1.186-0.53-1.186-1.186v-7.316
		c0-0.655,0.529-1.186,1.186-1.186h7.711c0.656,0,1.186,0.53,1.186,1.186V1287.848z"/>
	<path fill="#4EA1D9" d="M614.633,1287.848c0,0.655-0.531,1.186-1.188,1.186h-7.711c-0.654,0-1.186-0.53-1.186-1.186v-7.316
		c0-0.655,0.531-1.186,1.186-1.186h7.711c0.656,0,1.188,0.53,1.188,1.186V1287.848z"/>
	<path fill="#4EA1D9" d="M646.268,1271.441c0,0.654-0.531,1.186-1.186,1.186h-7.711c-0.656,0-1.188-0.531-1.188-1.186v-7.316
		c0-0.655,0.531-1.188,1.188-1.188h7.711c0.654,0,1.186,0.532,1.186,1.188V1271.441z"/>
	<path fill="#4EA1D9" d="M630.449,1271.441c0,0.654-0.529,1.186-1.186,1.186h-7.711c-0.656,0-1.186-0.531-1.186-1.186v-7.316
		c0-0.655,0.529-1.188,1.186-1.188h7.711c0.656,0,1.186,0.532,1.186,1.188V1271.441z"/>
	<path fill="#4EA1D9" d="M614.633,1271.441c0,0.654-0.531,1.186-1.188,1.186h-7.711c-0.654,0-1.186-0.531-1.186-1.186v-7.316
		c0-0.655,0.531-1.188,1.186-1.188h7.711c0.656,0,1.188,0.532,1.188,1.188V1271.441z"/>
	<path fill="#4EA1D9" d="M646.268,1255.033c0,0.656-0.531,1.188-1.186,1.188h-7.711c-0.656,0-1.188-0.531-1.188-1.188v-7.314
		c0-0.656,0.531-1.188,1.188-1.188h7.711c0.654,0,1.186,0.531,1.186,1.188V1255.033z"/>
	<path fill="#4EA1D9" d="M630.449,1255.033c0,0.656-0.529,1.188-1.186,1.188h-7.711c-0.656,0-1.186-0.531-1.186-1.188v-7.314
		c0-0.656,0.529-1.188,1.186-1.188h7.711c0.656,0,1.186,0.531,1.186,1.188V1255.033z"/>
	<path fill="#4EA1D9" d="M614.633,1255.033c0,0.656-0.531,1.188-1.188,1.188h-7.711c-0.654,0-1.186-0.531-1.186-1.188v-7.314
		c0-0.656,0.531-1.188,1.186-1.188h7.711c0.656,0,1.188,0.531,1.188,1.188V1255.033z"/>
</g>
<g>
	<path fill="none" stroke="#4EA1D9" stroke-width="3" stroke-miterlimit="10" d="M418.186,1278.542
		c0.061-0.291,0.09-0.592,0.09-0.893c0-1.869-1.158-3.459-2.791-4.1v-13.816l2.17-1.173l-44.275-23.411l-45.238,24.423l17.957,9.494
		v24.614h53.599v-25.426l12.307-6.643v12.037c-1.508,0.701-2.561,2.221-2.561,4c0,0.331,0.045,0.652,0.115,0.962l-1.84,16.965v0.09
		c0.01,1.564,0.986,2.758,2.1,3.449c1.139,0.712,2.537,1.083,4.057,1.094c1.52-0.011,2.912-0.382,4.055-1.094
		c1.113-0.691,2.092-1.885,2.102-3.449v-0.084L418.186,1278.542z M373.394,1239.089l35.038,18.528h-27.137
		c-0.48-1.213-1.449-2.175-2.563-2.832c-1.599-0.948-3.625-1.469-5.835-1.474c-2.215,0.005-4.24,0.525-5.84,1.474
		c-1.569,0.933-2.872,2.462-2.887,4.456c0.015,2.001,1.318,3.53,2.887,4.462c1.6,0.953,3.625,1.469,5.84,1.474
		c2.21-0.005,4.236-0.521,5.835-1.474c1.038-0.622,1.955-1.504,2.467-2.606h24.434l-33.236,17.947l-36.876-19.502L373.394,1239.089z
		 M378.146,1259.241c0.016,0.321-0.24,0.893-1.203,1.474c-0.932,0.566-2.4,0.988-4.046,0.983c-1.649,0.005-3.118-0.417-4.045-0.983
		c-0.962-0.581-1.217-1.152-1.208-1.474c-0.01-0.315,0.246-0.887,1.208-1.474c0.928-0.561,2.396-0.983,4.045-0.983
		c1.646,0,3.114,0.423,4.046,0.983C377.906,1258.359,378.162,1258.926,378.146,1259.241z M396.219,1290.207h-46.641v-19.3
		l22.839,12.086l0.817-0.446l22.985-12.407V1290.207z M412.924,1277.649c0-0.521,0.42-0.942,0.936-0.942
		c0.518,0,0.938,0.421,0.938,0.942c0,0.511-0.42,0.932-0.938,0.932C413.344,1278.581,412.924,1278.16,412.924,1277.649z
		 M416.064,1296.178c-0.461,0.301-1.271,0.552-2.189,0.552c-0.922,0-1.729-0.251-2.191-0.552c-0.375-0.251-0.457-0.421-0.48-0.481
		l1.498-13.806c0.371,0.101,0.752,0.171,1.158,0.171c0.416,0,0.809-0.07,1.188-0.182l1.5,13.827
		C416.521,1295.771,416.426,1295.937,416.064,1296.178z"/>
</g>
<g>
	<path fill="none" stroke="#4EA1D9" stroke-width="3" stroke-miterlimit="10" d="M479.285,1401.795
		c0.059-0.291,0.09-0.592,0.09-0.893c0-1.869-1.158-3.459-2.793-4.1v-13.817l2.172-1.173l-44.277-23.41l-45.236,24.423l17.957,9.494
		v24.614h53.6v-25.426l12.307-6.643v12.037c-1.51,0.701-2.563,2.221-2.563,4c0,0.331,0.045,0.652,0.115,0.962l-1.84,16.965v0.09
		c0.01,1.564,0.988,2.758,2.102,3.449c1.137,0.712,2.535,1.083,4.055,1.093c1.52-0.01,2.912-0.381,4.057-1.093
		c1.111-0.691,2.09-1.885,2.1-3.449v-0.085L479.285,1401.795z"/>
	<path fill="#4EA1D9" d="M434.492,1362.342l35.037,18.528h-27.137c-0.48-1.214-1.447-2.176-2.561-2.833
		c-1.6-0.947-3.625-1.468-5.836-1.473c-2.215,0.005-4.24,0.525-5.84,1.473c-1.568,0.934-2.873,2.463-2.887,4.457
		c0.014,2.001,1.318,3.529,2.887,4.461c1.6,0.953,3.625,1.469,5.84,1.475c2.211-0.006,4.236-0.521,5.836-1.475
		c1.037-0.621,1.955-1.504,2.467-2.605h24.434l-33.236,17.947l-36.877-19.502L434.492,1362.342z"/>
	<path fill="#4EA1D9" d="M439.244,1382.494c0.016,0.321-0.24,0.893-1.203,1.474c-0.932,0.566-2.4,0.988-4.045,0.983
		c-1.65,0.005-3.119-0.417-4.045-0.983c-0.963-0.581-1.219-1.152-1.209-1.474c-0.01-0.316,0.246-0.888,1.209-1.474
		c0.926-0.562,2.395-0.983,4.045-0.983c1.645,0,3.113,0.422,4.045,0.983C439.004,1381.612,439.26,1382.178,439.244,1382.494z"/>
	<polygon fill="#4EA1D9" points="457.316,1413.46 410.676,1413.46 410.676,1394.16 433.516,1406.246 434.332,1405.8 
		457.316,1393.393 	"/>
	<path fill="#4EA1D9" d="M474.021,1400.902c0-0.521,0.42-0.942,0.938-0.942c0.516,0,0.938,0.421,0.938,0.942
		c0,0.511-0.422,0.932-0.938,0.932C474.441,1401.834,474.021,1401.413,474.021,1400.902z"/>
	<path fill="#4EA1D9" d="M477.164,1419.431c-0.461,0.301-1.273,0.552-2.191,0.552c-0.922,0-1.729-0.251-2.191-0.552
		c-0.375-0.251-0.455-0.421-0.48-0.481l1.498-13.807c0.371,0.102,0.752,0.172,1.16,0.172c0.414,0,0.807-0.07,1.188-0.182
		l1.498,13.826C477.619,1419.023,477.525,1419.189,477.164,1419.431z"/>
</g>
<path fill="none" stroke="#4EA1D9" stroke-width="3" stroke-miterlimit="10" d="M657.795,1291.556c0,4.282-3.473,7.753-7.752,7.753
	h-49.27c-4.281,0-7.752-3.471-7.752-7.753v-47.546c0-4.282,3.471-7.752,7.752-7.752h49.27c4.279,0,7.752,3.47,7.752,7.752V1291.556z
	"/>
<g>
	<path fill="#4EA1D9" d="M127.072,1367.017c2.07-4.194,5.458-4.194,7.527,0l2.916,5.907c2.07,4.194,7.551,8.177,12.179,8.849
		l6.52,0.948c4.628,0.672,5.675,3.894,2.326,7.158l-4.717,4.6c-3.349,3.265-5.442,9.707-4.652,14.317l1.113,6.493
		c0.791,4.61-1.95,6.602-6.089,4.425l-5.832-3.066c-4.14-2.177-10.914-2.177-15.054,0l-5.832,3.066
		c-4.14,2.177-6.88,0.186-6.089-4.425l1.114-6.493c0.791-4.61-1.303-11.053-4.652-14.317l-4.718-4.6
		c-3.349-3.265-2.302-6.486,2.326-7.158l6.52-0.948c4.628-0.672,10.109-4.654,12.179-8.849L127.072,1367.017z"/>
</g>
<g>
	<path fill="none" stroke="#4EA1D9" stroke-width="3" stroke-miterlimit="10" d="M122.221,1243.764c2.07-4.194,5.457-4.194,7.527,0
		l2.915,5.907c2.07,4.194,7.551,8.177,12.179,8.85l6.521,0.947c4.628,0.673,5.675,3.895,2.326,7.159l-4.717,4.599
		c-3.35,3.265-5.443,9.707-4.652,14.317l1.114,6.493c0.791,4.61-1.95,6.601-6.089,4.425l-5.832-3.066
		c-4.14-2.176-10.914-2.176-15.054,0l-5.832,3.066c-4.14,2.176-6.88,0.186-6.089-4.425l1.114-6.493
		c0.791-4.61-1.303-11.053-4.652-14.317l-4.717-4.599c-3.35-3.265-2.303-6.486,2.326-7.159l6.52-0.947
		c4.628-0.673,10.109-4.655,12.179-8.85L122.221,1243.764z"/>
</g>
<g>
	<text transform="matrix(1 0 0 1 42.5293 1126.1875)"><tspan x="0" y="0" fill="#5B91B6" font-family="'HYg2gb3'" font-size="26">     复合大师课仅代表八戒复苏而感人服务区委我维护费</tspan><tspan x="0" y="31.2" fill="#5B91B6" font-family="'HYg2gb3'" font-size="26">是的噶世界很大功夫啥价格的方法来我阿速达高峰会拉升</tspan><tspan x="0" y="62.4" fill="#5B91B6" font-family="'HYg2gb3'" font-size="26">拉斯阿斯利康金盾股份</tspan></text>
</g>
<circle fill="#4EA1D9" cx="40.167" cy="1074.422" r="8.398"/>
<line fill="none" stroke="#3270B0" stroke-width="3" stroke-miterlimit="10" x1="0" y1="170" x2="750" y2="170"/>
<line fill="none" stroke="#3270B0" stroke-width="3" stroke-miterlimit="10" x1="0" y1="1215.016" x2="750" y2="1215.016"/>
<text transform="matrix(1 0 0 1 31.4355 157.6172)" fill="#040000" font-family="'HYg2gb3'" font-size="33.5925">&lt; 顺序练习</text>
<text transform="matrix(1 0 0 1 335.4565 155.6172)" fill="#040000" stroke="#000000" stroke-miterlimit="10" font-family="'HYg2gb3'" font-size="25.8404">单选题</text>
<text transform="matrix(1 0 0 1 32.4355 559.0923)"><tspan x="0" y="0" fill="#040000" stroke="#000000" stroke-miterlimit="10" font-family="'HYg2gb3'" font-size="36">单选题卡上的分厘卡似的和饭卡手动阀；看</tspan><tspan x="0" y="50" fill="#040000" stroke="#000000" stroke-miterlimit="10" font-family="'HYg2gb3'" font-size="36">啊看来就是都会发生快递发咯技术都很疯狂</tspan><tspan x="0" y="100" fill="#040000" stroke="#000000" stroke-miterlimit="10" font-family="'HYg2gb3'" font-size="36">啊就开始了好多个法律上的功夫？</tspan></text>
<text transform="matrix(1 0 0 1 609.2617 159.6172)"><tspan x="0" y="0" fill="#2890D0" font-family="'HYg2gb3'" font-size="38.7606">1</tspan><tspan x="19.381" y="0" fill="#040000" font-family="'HYg2gb3'" font-size="33.5925">/1325</tspan></text>
<path fill="#040000" d="M650.529,498.262c0,0.965-0.734,1.747-1.639,1.747H99.108c-0.905,0-1.638-0.782-1.638-1.747V201.756
	c0-0.964,0.733-1.747,1.638-1.747h549.783c0.904,0,1.639,0.782,1.639,1.747V498.262z"/>
<g>
	<circle fill="none" stroke="#C6C4C4" stroke-width="2" stroke-miterlimit="10" cx="94.62" cy="740.863" r="27.48"/>
	<g>
		<path fill="#595958" d="M93.021,728.79h2.296l10.157,24.147h-2.562l-2.809-6.766H88.694l-2.491,6.748l-2.438,0.018L93.021,728.79z
			 M99.31,744.141l-5.105-12.595l-4.734,12.595H99.31z"/>
	</g>
</g>
<g>
	<circle fill="none" stroke="#C6C4C4" stroke-width="2" stroke-miterlimit="10" cx="94.62" cy="827.352" r="27.48"/>
	<g>
		<path fill="#595958" d="M86.804,839.424l-0.018-24.146h8.073c2.272,0,4.003,0.724,5.193,2.172
			c0.954,1.166,1.431,2.515,1.431,4.046c0,1.236-0.324,2.325-0.972,3.267c-0.353,0.52-0.942,1.043-1.766,1.573
			c1.13,0.836,1.925,1.566,2.384,2.19c0.883,1.201,1.325,2.631,1.325,4.292c0,1.872-0.577,3.392-1.731,4.557
			c-0.824,0.837-1.713,1.384-2.667,1.644c-1.037,0.271-2.338,0.406-3.904,0.406H86.804z M89.065,825.875h4.981
			c3.356,0,5.034-1.406,5.034-4.222c0-2.85-1.649-4.275-4.946-4.275h-5.052L89.065,825.875z M89.083,827.925v9.397l4.469,0.017
			c2.179,0.013,3.709-0.252,4.593-0.794c0.483-0.283,0.889-0.701,1.219-1.255c0.482-0.823,0.724-1.719,0.724-2.685
			c0-1.566-0.542-2.791-1.625-3.675c-0.66-0.541-1.408-0.848-2.244-0.918c-0.4-0.023-0.948-0.041-1.643-0.053L89.083,827.925z"/>
	</g>
</g>
<g>
	<circle fill="none" stroke="#C6C4C4" stroke-width="2" stroke-miterlimit="10" cx="94.62" cy="912.738" r="27.48"/>
	<g>
		<path fill="#595958" d="M103.258,906.256l-2.243,0.018c-0.248-1-0.654-1.736-1.219-2.208c-1.084-0.895-2.491-1.342-4.222-1.342
			c-2.732,0-4.805,1.118-6.218,3.356c-0.965,1.531-1.448,3.545-1.448,6.041c0,3.003,0.377,5.205,1.13,6.606
			c0.612,1.153,1.455,2.043,2.526,2.667c1.248,0.73,2.679,1.095,4.292,1.095c2.002,0,3.509-0.53,4.522-1.59
			c0.448-0.459,0.86-1.206,1.237-2.243h2.226c-0.188,1.225-0.5,2.173-0.936,2.844c-1.425,2.226-3.851,3.339-7.278,3.339
			c-3.239,0-5.741-1.024-7.507-3.073c-1.813-2.107-2.72-5.212-2.72-9.31c0-2.555,0.395-4.633,1.183-6.235
			c1.06-2.143,2.485-3.633,4.275-4.47c1.59-0.741,3.268-1.112,5.035-1.112c2.731,0,4.793,0.878,6.182,2.632
			C102.664,904.013,103.058,905.008,103.258,906.256z"/>
	</g>
</g>
<g>
	<circle fill="none" stroke="#C6C4C4" stroke-width="2" stroke-miterlimit="10" cx="94.62" cy="1001.651" r="27.48"/>
	<g>
		<path fill="#595958" d="M85.514,1013.638v-23.953l5.741-0.018c4.439-0.024,7.695,1.048,9.768,3.215
			c1.802,1.884,2.703,4.828,2.703,8.833c0,4.733-1.225,8.042-3.674,9.927c-1.072,0.825-2.473,1.39-4.204,1.696
			c-1.072,0.199-2.526,0.3-4.363,0.3H85.514z M87.705,991.698v19.89h3.745c2.602,0,4.563-0.306,5.882-0.918
			c1.649-0.753,2.785-2.085,3.41-3.992c0.412-1.272,0.618-3.021,0.618-5.246c0-2.979-0.501-5.152-1.501-6.519
			c-1.578-2.143-4.363-3.215-8.355-3.215H87.705z"/>
	</g>
</g>
<text transform="matrix(1 0 0 1 138.3657 754.0039)" fill="#040000" font-family="'HYg2gb3'" font-size="33.5925">名试着让</text>
<g>
	<text transform="matrix(1 0 0 1 390.4277 754.0039)" fill="#3270B0" font-family="'HYg2gb3'" font-size="33.5925">名试着让</text>
</g>
<text transform="matrix(1 0 0 1 138.3657 841.5244)" fill="#040000" font-family="'HYg2gb3'" font-size="33.5925">名试着让</text>
<text transform="matrix(1 0 0 1 138.3657 929.0449)" fill="#040000" font-family="'HYg2gb3'" font-size="33.5925">名试着让</text>
<text transform="matrix(1 0 0 1 138.3657 1017.5996)" fill="#040000" font-family="'HYg2gb3'" font-size="33.5925">名试着让</text>
<g>
	<circle fill="none" stroke="#C6C4C4" stroke-width="2" stroke-miterlimit="10" cx="347.156" cy="912.738" r="27.48"/>
	<g>
		<path fill="#595958" d="M355.794,906.256l-2.244,0.018c-0.247-1-0.653-1.736-1.219-2.208c-1.083-0.895-2.491-1.342-4.222-1.342
			c-2.732,0-4.805,1.118-6.218,3.356c-0.965,1.531-1.449,3.545-1.449,6.041c0,3.003,0.377,5.205,1.131,6.606
			c0.612,1.153,1.455,2.043,2.526,2.667c1.248,0.73,2.679,1.095,4.292,1.095c2.002,0,3.509-0.53,4.522-1.59
			c0.448-0.459,0.859-1.206,1.236-2.243h2.226c-0.188,1.225-0.501,2.173-0.937,2.844c-1.425,2.226-3.851,3.339-7.277,3.339
			c-3.239,0-5.741-1.024-7.507-3.073c-1.813-2.107-2.721-5.212-2.721-9.31c0-2.555,0.395-4.633,1.184-6.235
			c1.06-2.143,2.485-3.633,4.275-4.47c1.59-0.741,3.268-1.112,5.034-1.112c2.732,0,4.793,0.878,6.183,2.632
			C355.2,904.013,355.594,905.008,355.794,906.256z"/>
	</g>
</g>
<g>
	<circle fill="none" stroke="#C6C4C4" stroke-width="2" stroke-miterlimit="10" cx="347.156" cy="1001.651" r="27.48"/>
	<g>
		<path fill="#595958" d="M338.051,1013.638v-23.953l5.741-0.018c4.44-0.024,7.696,1.048,9.769,3.215
			c1.802,1.884,2.703,4.828,2.703,8.833c0,4.733-1.226,8.042-3.675,9.927c-1.071,0.825-2.473,1.39-4.204,1.696
			c-1.071,0.199-2.526,0.3-4.363,0.3H338.051z M340.241,991.698v19.89h3.745c2.603,0,4.563-0.306,5.882-0.918
			c1.649-0.753,2.785-2.085,3.409-3.992c0.412-1.272,0.618-3.021,0.618-5.246c0-2.979-0.5-5.152-1.501-6.519
			c-1.578-2.143-4.363-3.215-8.355-3.215H340.241z"/>
	</g>
</g>
<text transform="matrix(1 0 0 1 390.9023 929.0449)" fill="#DBD9D9" font-family="'HYg2gb3'" font-size="33.5925">名试着让</text>
<text transform="matrix(1 0 0 1 390.9023 1017.5996)" fill="#DBD9D9" font-family="'HYg2gb3'" font-size="33.5925">名试着让</text>
<circle fill="#3270B0" cx="346.648" cy="742.977" r="27.48"/>
<g>
	<g>
		<path fill="#FFFFFF" d="M364.421,730.752c0.728,0.727,0.727,1.906,0,2.633l-22.223,22.224c-0.727,0.728-1.907,0.729-2.634,0
			l-0.659-0.658c-0.728-0.728-0.728-1.907,0-2.634l22.223-22.225c0.728-0.727,1.906-0.727,2.634,0L364.421,730.752z"/>
		<path fill="#FFFFFF" d="M329.784,741.882c0.728-0.728,1.627-1.007,2.009-0.624l11.685,11.684c0.383,0.383,0.103,1.281-0.624,2.009
			l-0.659,0.658c-0.727,0.729-1.627,1.008-2.009,0.625L328.5,744.55c-0.383-0.383-0.103-1.282,0.625-2.01L329.784,741.882z"/>
	</g>
</g>
<text transform="matrix(1 0 0 1 390.4277 840.6221)" fill="#E8353E" font-family="'HYg2gb3'" font-size="33.5925">名试着让</text>
<text transform="matrix(1 0 0 1 64.751 1081.293)" fill="#040000" font-family="'HYg2gb3'" font-size="25.8404">试题讲解</text>
<g>
	<circle fill="#E8353E" cx="346.236" cy="823.166" r="27.068"/>
	<g>
		<g>
			<path fill="#FFFFFF" d="M358.819,812.688c0.717,0.718,0.717,1.879,0,2.596l-21.89,21.891c-0.717,0.717-1.879,0.717-2.596,0
				l-0.648-0.649c-0.716-0.717-0.716-1.878,0-2.594l21.891-21.891c0.717-0.717,1.877-0.717,2.594,0L358.819,812.688z"/>
			<path fill="#FFFFFF" d="M334.333,812.04c0.718-0.718,1.879-0.718,2.596,0l21.89,21.89c0.717,0.717,0.717,1.878,0,2.595
				l-0.648,0.649c-0.715,0.716-1.878,0.716-2.594,0l-21.89-21.892c-0.717-0.716-0.717-1.878,0-2.595L334.333,812.04z"/>
		</g>
	</g>
</g>
<g>
	
		<line fill="none" stroke="#3270B0" stroke-width="3" stroke-miterlimit="10" x1="782.986" y1="898.761" x2="1532.987" y2="898.761"/>
	<g>
		<circle fill="#3270B0" cx="848.583" cy="871.736" r="21.729"/>
		<g>
			<g>
				<path fill="#FFFFFF" d="M862.636,862.07c0.575,0.575,0.574,1.508,0,2.082l-17.571,17.572c-0.575,0.575-1.508,0.575-2.082,0
					l-0.521-0.521c-0.575-0.575-0.575-1.508,0-2.083l17.571-17.571c0.576-0.575,1.508-0.575,2.083,0L862.636,862.07z"/>
				<path fill="#FFFFFF" d="M835.249,870.871c0.575-0.575,1.286-0.796,1.588-0.494l9.239,9.238c0.303,0.303,0.081,1.014-0.494,1.589
					l-0.521,0.521c-0.575,0.575-1.286,0.796-1.589,0.494l-9.239-9.238c-0.302-0.303-0.08-1.015,0.495-1.59L835.249,870.871z"/>
			</g>
		</g>
	</g>
	<text transform="matrix(1 0 0 1 1387.6914 883.4033)" fill="#040000" font-family="'HYg2gb3'" font-size="25.8404">11/1325</text>
	<text transform="matrix(1 0 0 1 1014.5762 883.4033)" fill="#040000" font-family="'HYg2gb3'" font-size="25.8404">7</text>
	<text transform="matrix(1 0 0 1 1026.2109 958.168)" fill="#040000" font-family="'HYg2gb3'" font-size="25.8404">3</text>
	<text transform="matrix(1 0 0 1 940.9365 958.168)" fill="#040000" font-family="'HYg2gb3'" font-size="25.8404">2</text>
	<text transform="matrix(1 0 0 1 855.6641 958.168)" fill="#040000" font-family="'HYg2gb3'" font-size="25.8404">1</text>
	<text transform="matrix(1 0 0 1 889.7725 882.8867)" fill="#040000" font-family="'HYg2gb3'" font-size="25.8404">6</text>
	<g>
		<circle fill="#E8353E" cx="975.871" cy="871.736" r="21.728"/>
		<g>
			<g>
				<path fill="#FFFFFF" d="M984.364,863.325c0.575,0.576,0.575,1.508,0,2.083l-17.57,17.571c-0.575,0.575-1.508,0.575-2.083,0
					l-0.521-0.521c-0.574-0.575-0.574-1.508,0-2.083l17.572-17.571c0.575-0.575,1.508-0.575,2.083,0L984.364,863.325z"/>
				<path fill="#FFFFFF" d="M964.711,862.805c0.576-0.576,1.508-0.576,2.083,0l17.571,17.57c0.575,0.576,0.575,1.509-0.001,2.084
					l-0.52,0.521c-0.574,0.574-1.508,0.574-2.083,0l-17.571-17.572c-0.576-0.574-0.576-1.507-0.001-2.082L964.711,862.805z"/>
			</g>
		</g>
	</g>
	<path fill="none" stroke="#C6C4C4" stroke-width="2" stroke-miterlimit="10" d="M1489.255,1309.027
		c0,11.758-9.531,21.29-21.29,21.29h-30.663c-11.759,0-21.292-9.532-21.292-21.29v-30.664c0-11.758,9.533-21.29,21.292-21.29h30.663
		c11.759,0,21.29,9.532,21.29,21.29V1309.027z"/>
	<path fill="none" stroke="#C6C4C4" stroke-width="2" stroke-miterlimit="10" d="M1404.971,1309.027
		c0,11.758-9.532,21.29-21.29,21.29h-30.664c-11.758,0-21.289-9.532-21.289-21.29v-30.664c0-11.758,9.531-21.29,21.289-21.29h30.664
		c11.758,0,21.29,9.532,21.29,21.29V1309.027z"/>
	<path fill="none" stroke="#C6C4C4" stroke-width="2" stroke-miterlimit="10" d="M1320.687,1309.027
		c0,11.758-9.531,21.29-21.29,21.29h-30.663c-11.759,0-21.291-9.532-21.291-21.29v-30.664c0-11.758,9.532-21.29,21.291-21.29h30.663
		c11.759,0,21.29,9.532,21.29,21.29V1309.027z"/>
	<path fill="none" stroke="#C6C4C4" stroke-width="2" stroke-miterlimit="10" d="M1236.402,1309.027
		c0,11.758-9.53,21.29-21.29,21.29h-30.663c-11.759,0-21.29-9.532-21.29-21.29v-30.664c0-11.758,9.531-21.29,21.29-21.29h30.663
		c11.76,0,21.29,9.532,21.29,21.29V1309.027z"/>
	<path fill="none" stroke="#C6C4C4" stroke-width="2" stroke-miterlimit="10" d="M1152.118,1309.027
		c0,11.758-9.531,21.29-21.29,21.29h-30.663c-11.759,0-21.29-9.532-21.29-21.29v-30.664c0-11.758,9.531-21.29,21.29-21.29h30.663
		c11.759,0,21.29,9.532,21.29,21.29V1309.027z"/>
	<path fill="none" stroke="#C6C4C4" stroke-width="2" stroke-miterlimit="10" d="M1067.834,1309.027
		c0,11.758-9.53,21.29-21.289,21.29h-30.663c-11.76,0-21.291-9.532-21.291-21.29v-30.664c0-11.758,9.531-21.29,21.291-21.29h30.663
		c11.759,0,21.289,9.532,21.289,21.29V1309.027z"/>
	<path fill="none" stroke="#C6C4C4" stroke-width="2" stroke-miterlimit="10" d="M983.551,1309.027
		c0,11.758-9.531,21.29-21.29,21.29h-30.663c-11.759,0-21.29-9.532-21.29-21.29v-30.664c0-11.758,9.531-21.29,21.29-21.29h30.663
		c11.759,0,21.29,9.532,21.29,21.29V1309.027z"/>
	<path fill="none" stroke="#C6C4C4" stroke-width="2" stroke-miterlimit="10" d="M899.267,1309.027
		c0,11.758-9.531,21.29-21.29,21.29h-30.664c-11.758,0-21.289-9.532-21.289-21.29v-30.664c0-11.758,9.531-21.29,21.289-21.29h30.664
		c11.759,0,21.29,9.532,21.29,21.29V1309.027z"/>
	<path fill="none" stroke="#C6C4C4" stroke-width="2" stroke-miterlimit="10" d="M1489.255,1223.157
		c0,11.759-9.531,21.29-21.29,21.29h-30.663c-11.759,0-21.292-9.531-21.292-21.29v-30.663c0-11.759,9.533-21.29,21.292-21.29h30.663
		c11.759,0,21.29,9.531,21.29,21.29V1223.157z"/>
	<path fill="none" stroke="#C6C4C4" stroke-width="2" stroke-miterlimit="10" d="M1404.971,1223.157
		c0,11.759-9.532,21.29-21.29,21.29h-30.664c-11.758,0-21.289-9.531-21.289-21.29v-30.663c0-11.759,9.531-21.29,21.289-21.29h30.664
		c11.758,0,21.29,9.531,21.29,21.29V1223.157z"/>
	<path fill="none" stroke="#C6C4C4" stroke-width="2" stroke-miterlimit="10" d="M1320.687,1223.157
		c0,11.759-9.531,21.29-21.29,21.29h-30.663c-11.759,0-21.291-9.531-21.291-21.29v-30.663c0-11.759,9.532-21.29,21.291-21.29h30.663
		c11.759,0,21.29,9.531,21.29,21.29V1223.157z"/>
	<path fill="none" stroke="#C6C4C4" stroke-width="2" stroke-miterlimit="10" d="M1236.402,1223.157
		c0,11.759-9.53,21.29-21.29,21.29h-30.663c-11.759,0-21.29-9.531-21.29-21.29v-30.663c0-11.759,9.531-21.29,21.29-21.29h30.663
		c11.76,0,21.29,9.531,21.29,21.29V1223.157z"/>
	<path fill="none" stroke="#C6C4C4" stroke-width="2" stroke-miterlimit="10" d="M1152.118,1223.157
		c0,11.759-9.531,21.29-21.29,21.29h-30.663c-11.759,0-21.29-9.531-21.29-21.29v-30.663c0-11.759,9.531-21.29,21.29-21.29h30.663
		c11.759,0,21.29,9.531,21.29,21.29V1223.157z"/>
	<path fill="none" stroke="#C6C4C4" stroke-width="2" stroke-miterlimit="10" d="M1067.834,1223.157
		c0,11.759-9.53,21.29-21.289,21.29h-30.663c-11.76,0-21.291-9.531-21.291-21.29v-30.663c0-11.759,9.531-21.29,21.291-21.29h30.663
		c11.759,0,21.289,9.531,21.289,21.29V1223.157z"/>
	<path fill="none" stroke="#C6C4C4" stroke-width="2" stroke-miterlimit="10" d="M983.551,1223.157
		c0,11.759-9.531,21.29-21.29,21.29h-30.663c-11.759,0-21.29-9.531-21.29-21.29v-30.663c0-11.759,9.531-21.29,21.29-21.29h30.663
		c11.759,0,21.29,9.531,21.29,21.29V1223.157z"/>
	<path fill="none" stroke="#C6C4C4" stroke-width="2" stroke-miterlimit="10" d="M899.267,1223.157
		c0,11.759-9.531,21.29-21.29,21.29h-30.664c-11.758,0-21.289-9.531-21.289-21.29v-30.663c0-11.759,9.531-21.29,21.289-21.29h30.664
		c11.759,0,21.29,9.531,21.29,21.29V1223.157z"/>
	<path fill="none" stroke="#C6C4C4" stroke-width="2" stroke-miterlimit="10" d="M1489.255,1137.288
		c0,11.758-9.531,21.291-21.29,21.291h-30.663c-11.759,0-21.292-9.533-21.292-21.291v-30.664c0-11.757,9.533-21.29,21.292-21.29
		h30.663c11.759,0,21.29,9.533,21.29,21.29V1137.288z"/>
	<path fill="none" stroke="#C6C4C4" stroke-width="2" stroke-miterlimit="10" d="M1404.971,1137.288
		c0,11.758-9.532,21.291-21.29,21.291h-30.664c-11.758,0-21.289-9.533-21.289-21.291v-30.664c0-11.757,9.531-21.29,21.289-21.29
		h30.664c11.758,0,21.29,9.533,21.29,21.29V1137.288z"/>
	<path fill="none" stroke="#C6C4C4" stroke-width="2" stroke-miterlimit="10" d="M1320.687,1137.288
		c0,11.758-9.531,21.291-21.29,21.291h-30.663c-11.759,0-21.291-9.533-21.291-21.291v-30.664c0-11.757,9.532-21.29,21.291-21.29
		h30.663c11.759,0,21.29,9.533,21.29,21.29V1137.288z"/>
	<path fill="none" stroke="#C6C4C4" stroke-width="2" stroke-miterlimit="10" d="M1236.402,1137.288
		c0,11.758-9.53,21.291-21.29,21.291h-30.663c-11.759,0-21.29-9.533-21.29-21.291v-30.664c0-11.757,9.531-21.29,21.29-21.29h30.663
		c11.76,0,21.29,9.533,21.29,21.29V1137.288z"/>
	<path fill="none" stroke="#C6C4C4" stroke-width="2" stroke-miterlimit="10" d="M1152.118,1137.288
		c0,11.758-9.531,21.291-21.29,21.291h-30.663c-11.759,0-21.29-9.533-21.29-21.291v-30.664c0-11.757,9.531-21.29,21.29-21.29h30.663
		c11.759,0,21.29,9.533,21.29,21.29V1137.288z"/>
	<path fill="none" stroke="#C6C4C4" stroke-width="2" stroke-miterlimit="10" d="M1067.834,1137.288
		c0,11.758-9.53,21.291-21.289,21.291h-30.663c-11.76,0-21.291-9.533-21.291-21.291v-30.664c0-11.757,9.531-21.29,21.291-21.29
		h30.663c11.759,0,21.289,9.533,21.289,21.29V1137.288z"/>
	<path fill="none" stroke="#C6C4C4" stroke-width="2" stroke-miterlimit="10" d="M983.551,1137.288
		c0,11.758-9.531,21.291-21.29,21.291h-30.663c-11.759,0-21.29-9.533-21.29-21.291v-30.664c0-11.757,9.531-21.29,21.29-21.29h30.663
		c11.759,0,21.29,9.533,21.29,21.29V1137.288z"/>
	<path fill="none" stroke="#C6C4C4" stroke-width="2" stroke-miterlimit="10" d="M899.267,1137.288
		c0,11.758-9.531,21.291-21.29,21.291h-30.664c-11.758,0-21.289-9.533-21.289-21.291v-30.664c0-11.757,9.531-21.29,21.289-21.29
		h30.664c11.759,0,21.29,9.533,21.29,21.29V1137.288z"/>
	<path fill="none" stroke="#C6C4C4" stroke-width="2" stroke-miterlimit="10" d="M1489.255,1051.419
		c0,11.758-9.531,21.29-21.29,21.29h-30.663c-11.759,0-21.292-9.532-21.292-21.29v-30.663c0-11.759,9.533-21.29,21.292-21.29h30.663
		c11.759,0,21.29,9.531,21.29,21.29V1051.419z"/>
	<path fill="none" stroke="#C6C4C4" stroke-width="2" stroke-miterlimit="10" d="M1404.971,1051.419
		c0,11.758-9.532,21.29-21.29,21.29h-30.664c-11.758,0-21.289-9.532-21.289-21.29v-30.663c0-11.759,9.531-21.29,21.289-21.29h30.664
		c11.758,0,21.29,9.531,21.29,21.29V1051.419z"/>
	<path fill="none" stroke="#C6C4C4" stroke-width="2" stroke-miterlimit="10" d="M1320.687,1051.419
		c0,11.758-9.531,21.29-21.29,21.29h-30.663c-11.759,0-21.291-9.532-21.291-21.29v-30.663c0-11.759,9.532-21.29,21.291-21.29h30.663
		c11.759,0,21.29,9.531,21.29,21.29V1051.419z"/>
	<path fill="none" stroke="#C6C4C4" stroke-width="2" stroke-miterlimit="10" d="M1236.402,1051.419
		c0,11.758-9.53,21.29-21.29,21.29h-30.663c-11.759,0-21.29-9.532-21.29-21.29v-30.663c0-11.759,9.531-21.29,21.29-21.29h30.663
		c11.76,0,21.29,9.531,21.29,21.29V1051.419z"/>
	<path fill="none" stroke="#C6C4C4" stroke-width="2" stroke-miterlimit="10" d="M1152.118,1051.419
		c0,11.758-9.531,21.29-21.29,21.29h-30.663c-11.759,0-21.29-9.532-21.29-21.29v-30.663c0-11.759,9.531-21.29,21.29-21.29h30.663
		c11.759,0,21.29,9.531,21.29,21.29V1051.419z"/>
	<path fill="none" stroke="#C6C4C4" stroke-width="2" stroke-miterlimit="10" d="M1067.834,1051.419
		c0,11.758-9.53,21.29-21.289,21.29h-30.663c-11.76,0-21.291-9.532-21.291-21.29v-30.663c0-11.759,9.531-21.29,21.291-21.29h30.663
		c11.759,0,21.289,9.531,21.289,21.29V1051.419z"/>
	<path fill="none" stroke="#C6C4C4" stroke-width="2" stroke-miterlimit="10" d="M983.551,1051.419
		c0,11.758-9.531,21.29-21.29,21.29h-30.663c-11.759,0-21.29-9.532-21.29-21.29v-30.663c0-11.759,9.531-21.29,21.29-21.29h30.663
		c11.759,0,21.29,9.531,21.29,21.29V1051.419z"/>
	<path fill="none" stroke="#C6C4C4" stroke-width="2" stroke-miterlimit="10" d="M899.267,1051.419
		c0,11.758-9.531,21.29-21.29,21.29h-30.664c-11.758,0-21.289-9.532-21.289-21.29v-30.663c0-11.759,9.531-21.29,21.289-21.29h30.664
		c11.759,0,21.29,9.531,21.29,21.29V1051.419z"/>
	<path fill="none" stroke="#C6C4C4" stroke-width="2" stroke-miterlimit="10" d="M1489.255,965.55c0,11.758-9.531,21.29-21.29,21.29
		h-30.663c-11.759,0-21.292-9.532-21.292-21.29v-30.664c0-11.758,9.533-21.29,21.292-21.29h30.663c11.759,0,21.29,9.532,21.29,21.29
		V965.55z"/>
	<path fill="none" stroke="#C6C4C4" stroke-width="2" stroke-miterlimit="10" d="M1404.971,965.55c0,11.758-9.532,21.29-21.29,21.29
		h-30.664c-11.758,0-21.289-9.532-21.289-21.29v-30.664c0-11.758,9.531-21.29,21.289-21.29h30.664c11.758,0,21.29,9.532,21.29,21.29
		V965.55z"/>
	<path fill="none" stroke="#C6C4C4" stroke-width="2" stroke-miterlimit="10" d="M1320.687,965.55c0,11.758-9.531,21.29-21.29,21.29
		h-30.663c-11.759,0-21.291-9.532-21.291-21.29v-30.664c0-11.758,9.532-21.29,21.291-21.29h30.663c11.759,0,21.29,9.532,21.29,21.29
		V965.55z"/>
	<path fill="none" stroke="#C6C4C4" stroke-width="2" stroke-miterlimit="10" d="M1236.402,965.55c0,11.758-9.53,21.29-21.29,21.29
		h-30.663c-11.759,0-21.29-9.532-21.29-21.29v-30.664c0-11.758,9.531-21.29,21.29-21.29h30.663c11.76,0,21.29,9.532,21.29,21.29
		V965.55z"/>
	<path fill="none" stroke="#C6C4C4" stroke-width="2" stroke-miterlimit="10" d="M1152.118,965.55c0,11.758-9.531,21.29-21.29,21.29
		h-30.663c-11.759,0-21.29-9.532-21.29-21.29v-30.664c0-11.758,9.531-21.29,21.29-21.29h30.663c11.759,0,21.29,9.532,21.29,21.29
		V965.55z"/>
	<path fill="none" stroke="#3270B0" stroke-width="2" stroke-miterlimit="10" d="M1067.834,965.55c0,11.758-9.53,21.29-21.289,21.29
		h-30.663c-11.76,0-21.291-9.532-21.291-21.29v-30.664c0-11.758,9.531-21.29,21.291-21.29h30.663
		c11.759,0,21.289,9.532,21.289,21.29V965.55z"/>
	<path fill="none" stroke="#E8353E" stroke-width="2" stroke-miterlimit="10" d="M983.551,965.55c0,11.758-9.531,21.29-21.29,21.29
		h-30.663c-11.759,0-21.29-9.532-21.29-21.29v-30.664c0-11.758,9.531-21.29,21.29-21.29h30.663c11.759,0,21.29,9.532,21.29,21.29
		V965.55z"/>
	<path fill="none" stroke="#C6C4C4" stroke-width="2" stroke-miterlimit="10" d="M899.267,965.55c0,11.758-9.531,21.29-21.29,21.29
		h-30.664c-11.758,0-21.289-9.532-21.289-21.29v-30.664c0-11.758,9.531-21.29,21.289-21.29h30.664c11.759,0,21.29,9.532,21.29,21.29
		V965.55z"/>
</g>
</svg>
