<?xml version="1.0" encoding="utf-8"?>
<!-- Generator: Adobe Illustrator 16.0.0, SVG Export Plug-In . SVG Version: 6.00 Build 0)  -->
<!DOCTYPE svg PUBLIC "-//W3C//DTD SVG 1.1//EN" "http://www.w3.org/Graphics/SVG/1.1/DTD/svg11.dtd">
<svg version="1.1" id="图层_1" xmlns="http://www.w3.org/2000/svg" xmlns:xlink="http://www.w3.org/1999/xlink" x="0px" y="0px"
	 width="750px" height="1334px" viewBox="0 0 750 1334" enable-background="new 0 0 750 1334" xml:space="preserve">
<rect fill="#3270B0" width="750" height="1334"/>
<rect y="1213" fill="#FFFFFF" width="750" height="121"/>
<path fill="#FFFFFF" d="M720.129,1157.237c0,13.565-13.003,24.563-29.042,24.563H58.912c-16.039,0-29.041-10.997-29.041-24.563
	V736.36c0-13.565,13.002-24.561,29.041-24.561h632.175c16.039,0,29.042,10.995,29.042,24.561V1157.237z"/>
<line fill="none" stroke="#3270B0" stroke-width="3" stroke-miterlimit="10" x1="34.525" y1="1013.313" x2="724.782" y2="1013.313"/>
<path fill="#FFFFFF" d="M414.51,1055.666v52.803c0,4.021-3.26,7.282-7.284,7.282h-54.622c0,0-7.283,0-7.283-7.282v-69.189
	c0-4.023,3.258-7.282,7.283-7.282h38.236v16.388c0,4.023,3.258,7.281,7.281,7.281H414.51z"/>
<path fill="#3879BE" d="M414.51,1055.666h-16.389c-4.023,0-7.281-3.258-7.281-7.281v-16.388L414.51,1055.666z"/>
<path fill="#474C54" d="M416.188,1054.966c-0.091-0.219-0.227-0.421-0.393-0.589l-23.67-23.666
	c-0.341-0.342-0.804-0.534-1.286-0.534h-38.236c-5.021,0-9.104,4.082-9.104,9.103v69.189c0,7.203,5.955,9.103,9.104,9.103h54.622
	c5.02,0,9.104-4.083,9.104-9.103v-52.803C416.33,1055.426,416.279,1055.188,416.188,1054.966 M407.226,1113.933h-54.614
	c-0.914-0.013-5.471-0.324-5.471-5.464v-69.189c0-3.013,2.451-5.465,5.463-5.465h37.481l20.03,20.032h-11.994
	c-3.011,0-5.461-2.452-5.461-5.462v-5.464c0-1.003-0.815-1.822-1.82-1.822c-1.007,0-1.822,0.819-1.822,1.822v5.464
	c0,5.019,4.086,9.101,9.104,9.101h14.567v50.983C412.688,1111.479,410.238,1113.933,407.226,1113.933"/>
<path fill="#474C54" d="M403.585,1084.799h-47.34c-1.005,0-1.821,0.815-1.821,1.82c0,1.003,0.816,1.818,1.821,1.818h47.34
	c1.005,0,1.82-0.815,1.82-1.818C405.405,1085.614,404.59,1084.799,403.585,1084.799"/>
<path fill="#474C54" d="M403.585,1093.9h-3.643c-1.004,0-1.821,0.819-1.821,1.824c0,1.003,0.817,1.818,1.821,1.818h3.643
	c1.005,0,1.82-0.815,1.82-1.818C405.405,1094.72,404.59,1093.9,403.585,1093.9"/>
<path fill="#474C54" d="M392.66,1093.9h-3.643c-1.004,0-1.82,0.819-1.82,1.824c0,1.003,0.816,1.818,1.82,1.818h3.643
	c1.003,0,1.82-0.815,1.82-1.818C394.48,1094.72,393.663,1093.9,392.66,1093.9"/>
<path fill="#3879BE" d="M410.875,864.463c7.804,0,14.116,6.312,14.116,14.115s-6.313,14.116-14.116,14.116H340.3
	c0,0-8.066,0-8.066-8.068v-62.507c0,0,0-8.064,8.066-8.064h56.459v64.523C396.76,870.774,403.069,864.463,410.875,864.463"/>
<path fill="#3879BE" d="M424.991,814.055v64.523c0-7.804-6.313-14.115-14.116-14.115c-7.806,0-14.115,6.312-14.115,14.115v-64.523
	c0-7.808,6.31-14.117,14.115-14.117C418.679,799.938,424.991,806.247,424.991,814.055"/>
<path fill="#326A9D" d="M424.991,878.578c0,7.795-6.32,14.116-14.116,14.116s-14.115-6.321-14.115-14.116
	c0-7.796,6.319-14.115,14.115-14.115S424.991,870.782,424.991,878.578"/>
<path fill="#FFFFFF" d="M342.317,856.397c0,1.114,0.9,2.016,2.016,2.016h28.23c1.115,0,2.016-0.901,2.016-2.016V828.17
	c0-1.114-0.901-2.021-2.016-2.021h-28.23c-1.116,0-2.016,0.906-2.016,2.021V856.397z"/>
<path fill="#FFFFFF" d="M386.678,862.446c0,8.908-7.224,16.132-16.131,16.132c-8.908,0-16.132-7.224-16.132-16.132
	c0-8.907,7.224-16.129,16.132-16.129C379.454,846.317,386.678,853.539,386.678,862.446"/>
<path fill="#474C54" d="M410.875,797.921c-8.21,0-15.011,6.169-16.007,14.114H340.3c-7.975,0-10.083,6.597-10.083,10.084v62.507
	c0,7.976,6.595,10.084,10.083,10.084h70.575c7.849,0,14.405-5.634,15.84-13.072c0.186-0.301,0.291-0.661,0.291-1.042v-66.541
	C427.006,805.159,419.77,797.921,410.875,797.921 M410.875,890.676h-70.563c-1.012-0.01-6.061-0.358-6.061-6.05v-62.497
	c0.012-1.01,0.355-6.061,6.049-6.061h54.444v62.51c0,1.115,0.9,2.018,2.016,2.018c1.113,0,2.017-0.902,2.017-2.018
	c0-6.668,5.427-12.097,12.099-12.097c6.671,0,12.098,5.429,12.098,12.097C422.973,885.251,417.546,890.676,410.875,890.676
	 M422.973,867.919c-2.957-3.354-7.284-5.473-12.098-5.473s-9.142,2.119-12.099,5.473v-53.864c0-6.673,5.427-12.1,12.099-12.1
	c6.671,0,12.098,5.427,12.098,12.1V867.919z"/>
<path fill="#474C54" d="M346.348,856.397h-2.015V828.17h28.23v10.078c0,1.113,0.902,2.018,2.016,2.018
	c1.114,0,2.017-0.904,2.017-2.018V828.17c0-2.228-1.808-4.035-4.033-4.035h-28.23c-2.224,0-4.033,1.808-4.033,4.035v28.228
	c0,2.226,1.809,4.033,4.033,4.033h2.015c1.116,0,2.018-0.902,2.018-2.018C348.366,857.3,347.464,856.397,346.348,856.397"/>
<path fill="#474C54" d="M370.547,844.3c-10.007,0-18.149,8.14-18.149,18.146s8.142,18.149,18.149,18.149
	c10.008,0,18.147-8.143,18.147-18.149S380.555,844.3,370.547,844.3 M370.547,876.563c-7.783,0-14.116-6.333-14.116-14.116
	c0-7.782,6.333-14.114,14.116-14.114c7.78,0,14.113,6.332,14.113,14.114C384.66,870.229,378.327,876.563,370.547,876.563"/>
<rect x="330.217" y="797.921" fill="none" width="96.789" height="96.789"/>
<path fill="#3879BE" d="M635.771,1039.279v7.283h-83.758v-7.283c0-4.023,3.262-7.281,7.283-7.281h69.19
	C628.486,1031.998,635.771,1031.998,635.771,1039.279"/>
<path fill="#FFFFFF" d="M635.771,1046.563v61.907c0,4.024-3.259,7.281-7.284,7.281h-69.19c-4.021,0-7.283-3.257-7.283-7.281v-61.907
	H635.771z"/>
<path fill="#3879BE" d="M610.278,1092.082l-5.461-5.463l-5.466-5.463v-16.387c9.051,0,16.391,7.336,16.391,16.387
	c0,4.516-1.839,8.631-4.81,11.582L610.278,1092.082z"/>
<path fill="#FFFFFF" d="M610.933,1092.738c-2.949,2.97-7.063,4.807-11.581,4.807c-9.048,0-16.384-7.34-16.384-16.389h7.282h9.102
	l5.466,5.463l5.461,5.463L610.933,1092.738z"/>
<path fill="#474C54" d="M635.771,1044.741h-74.651c-1.008,0-1.823,0.817-1.823,1.821c0,1.007,0.815,1.822,1.823,1.822h72.829v60.085
	c0,3.012-2.448,5.463-5.462,5.463h-69.19c-3.011,0-5.46-2.451-5.46-5.463v-69.19c0-3.013,2.449-5.464,5.46-5.464h69.179
	c0.914,0.014,5.474,0.326,5.474,5.464c0,1.008,0.815,1.82,1.822,1.82c1.005,0,1.818-0.813,1.818-1.82
	c0-7.201-5.955-9.105-9.103-9.105h-69.19c-5.017,0-9.102,4.087-9.102,9.105v69.19c0,5.021,4.085,9.104,9.102,9.104h69.19
	c5.021,0,9.103-4.083,9.103-9.104v-61.907C637.589,1045.559,636.775,1044.741,635.771,1044.741"/>
<path fill="#474C54" d="M561.119,1037.459c-1.008,0-1.823,0.813-1.823,1.82c0,1.008,0.815,1.82,1.823,1.82h3.641
	c1.005,0,1.82-0.813,1.82-1.82c0-1.007-0.815-1.82-1.82-1.82H561.119z"/>
<path fill="#474C54" d="M572.042,1037.459c-1.006,0-1.819,0.813-1.819,1.82c0,1.008,0.813,1.82,1.819,1.82h3.641
	c1.009,0,1.822-0.813,1.822-1.82c0-1.007-0.813-1.82-1.822-1.82H572.042z"/>
<path fill="#474C54" d="M624.844,1037.459c-1.005,0-1.82,0.813-1.82,1.82c0,1.008,0.815,1.82,1.82,1.82h3.643
	c1.008,0,1.821-0.813,1.821-1.82c0-1.007-0.813-1.82-1.821-1.82H624.844z"/>
<path fill="#474C54" d="M582.968,1079.339c-1.007,0-1.822,0.811-1.822,1.817c0,10.042,8.171,18.209,18.206,18.209
	c10.043,0,18.21-8.167,18.21-18.209c0-10.037-8.167-18.207-18.21-18.207c-1.005,0-1.817,0.816-1.817,1.82v14.569h-7.284
	c-1.006,0-1.821,0.811-1.821,1.817c0,1.008,0.815,1.82,1.821,1.82h8.351l4.931,4.93c0.71,0.713,1.861,0.713,2.572,0
	c0.71-0.711,0.71-1.861,0-2.573l-4.929-4.929v-13.698c7.177,0.899,12.744,7.037,12.744,14.45c0,8.032-6.533,14.568-14.567,14.568
	c-8.028,0-14.563-6.536-14.563-14.568C584.788,1080.149,583.973,1079.339,582.968,1079.339"/>
<path fill="#474C54" d="M592.07,1075.694c1.008,0,1.822-0.812,1.822-1.819v-7.283c0-1.007-0.814-1.822-1.822-1.822h-5.461
	c-1.008,0-1.821,0.815-1.821,1.822c0,1.006,0.813,1.82,1.821,1.82h3.641v5.463C590.25,1074.883,591.065,1075.694,592.07,1075.694"/>
<path fill="#474C54" d="M579.327,1068.412c1.007,0,1.818-0.814,1.818-1.82c0-1.007-0.812-1.822-1.818-1.822h-3.645
	c-1.006,0-1.819,0.815-1.819,1.822c0,1.006,0.813,1.82,1.819,1.82H579.327z"/>
<path fill="#474C54" d="M570.223,1073.875c0,1.008,0.813,1.819,1.819,1.819h7.285c1.007,0,1.818-0.812,1.818-1.819
	s-0.812-1.82-1.818-1.82h-7.285C571.036,1072.055,570.223,1072.867,570.223,1073.875"/>
<path fill="#474C54" d="M559.831,1107.936c0.356,0.355,0.821,0.534,1.288,0.534c0.462,0,0.931-0.179,1.288-0.534l10.39-10.391h6.53
	c1.007,0,1.818-0.816,1.818-1.82c0-1.007-0.812-1.821-1.818-1.821h-7.285c-0.48,0-0.945,0.19-1.288,0.534l-10.923,10.924
	C559.118,1106.07,559.118,1107.227,559.831,1107.936"/>
<path fill="#474C54" d="M616.276,1066.06c0.354,0.352,0.818,0.532,1.285,0.532c0.465,0,0.931-0.181,1.286-0.532l5.996-5.996v4.706
	c0,1.008,0.816,1.822,1.823,1.822c1.006,0,1.819-0.814,1.819-1.822v-9.102c0-0.236-0.049-0.473-0.141-0.694
	c-0.187-0.449-0.539-0.799-0.983-0.99c-0.225-0.091-0.46-0.138-0.695-0.138h-9.105c-1.007,0-1.819,0.814-1.819,1.822
	c0,1.005,0.813,1.819,1.819,1.819h4.708l-5.993,5.997C615.563,1064.194,615.563,1065.346,616.276,1066.06"/>
<rect x="550.194" y="1030.174" fill="none" width="87.395" height="87.399"/>
<path fill="#3879BE" d="M202.882,1039.279v7.283h-83.756v-7.283c0-4.023,3.261-7.281,7.283-7.281H195.6
	C195.6,1031.998,202.882,1031.998,202.882,1039.279"/>
<path fill="#FFFFFF" d="M202.882,1046.563v61.907c0,4.024-3.258,7.281-7.282,7.281h-69.191c-4.022,0-7.283-3.257-7.283-7.281
	v-61.907H202.882z"/>
<path fill="#474C54" d="M202.882,1044.741h-74.651c-1.007,0-1.822,0.817-1.822,1.821c0,1.007,0.815,1.822,1.822,1.822h72.831v60.085
	c0,3.012-2.45,5.463-5.462,5.463h-69.191c-3.01,0-5.461-2.451-5.461-5.463v-69.19c0-3.013,2.451-5.464,5.461-5.464h69.18
	c0.913,0.014,5.473,0.326,5.473,5.464c0,1.008,0.814,1.82,1.82,1.82c1.007,0,1.82-0.813,1.82-1.82c0-7.201-5.956-9.105-9.103-9.105
	h-69.191c-5.019,0-9.104,4.087-9.104,9.105v69.19c0,5.021,4.084,9.104,9.104,9.104H195.6c5.02,0,9.103-4.083,9.103-9.104v-61.907
	C204.703,1045.559,203.89,1044.741,202.882,1044.741"/>
<path fill="#474C54" d="M128.231,1037.459c-1.007,0-1.822,0.813-1.822,1.82c0,1.008,0.815,1.82,1.822,1.82h3.642
	c1.006,0,1.819-0.813,1.819-1.82c0-1.007-0.813-1.82-1.819-1.82H128.231z"/>
<path fill="#474C54" d="M139.155,1037.459c-1.005,0-1.819,0.813-1.819,1.82c0,1.008,0.814,1.82,1.819,1.82h3.641
	c1.006,0,1.821-0.813,1.821-1.82c0-1.007-0.814-1.82-1.821-1.82H139.155z"/>
<path fill="#474C54" d="M191.957,1037.459c-1.005,0-1.821,0.813-1.821,1.82c0,1.008,0.816,1.82,1.821,1.82h3.643
	c1.006,0,1.82-0.813,1.82-1.82c0-1.007-0.814-1.82-1.82-1.82H191.957z"/>
<rect x="117.306" y="1030.174" fill="none" width="87.397" height="87.399"/>
<polygon fill="#3879BE" points="161.171,1058.922 168.388,1073.545 184.525,1075.891 172.848,1087.272 175.604,1103.345 
	161.171,1095.756 146.737,1103.345 149.493,1087.272 137.816,1075.891 153.954,1073.545 "/>
<g>
	<path fill="#5B91B6" d="M720.011,83.558c0,9.33-4.431,18.6-12.191,18.6H567.271c-7.762,0-15.907-9.27-15.907-18.6V71.273
		c0-9.329,8.146-15.349,15.907-15.349h140.549c7.761,0,12.191,6.02,12.191,15.349V83.558z"/>
	<line fill="none" stroke="#C8C9CA" stroke-width="2" stroke-miterlimit="10" x1="641" y1="63" x2="641" y2="93"/>
	<g>
		<circle fill="#FFFFFF" cx="587.958" cy="77.295" r="2.368"/>
		<circle fill="#FFFFFF" cx="598.834" cy="76.74" r="4.031"/>
		<circle fill="#FFFFFF" cx="609.262" cy="77.295" r="2.368"/>
	</g>
	<circle fill="none" stroke="#FFFFFF" stroke-miterlimit="10" cx="674.623" cy="77.256" r="9.981"/>
	<circle fill="#FFFFFF" cx="674.623" cy="77.256" r="4.031"/>
</g>
<path fill="#3879BE" d="M638.051,1270.52c0,0.995-1.364,1.804-3.046,1.804l0,0c-1.683,0-3.047-0.809-3.047-1.804v-22.377
	c0-0.995,1.364-1.803,3.047-1.803l0,0c1.682,0,3.046,0.808,3.046,1.803V1270.52z"/>
<path fill="#3879BE" d="M629.382,1266.686c0,1.346-1.364,2.438-3.046,2.438l0,0c-1.683,0-3.047-1.093-3.047-2.438v-30.255
	c0-1.346,1.364-2.438,3.047-2.438l0,0c1.682,0,3.046,1.092,3.046,2.438V1266.686z"/>
<path fill="#3879BE" d="M621.001,1262.182c0,1.347-1.364,2.438-3.046,2.438l0,0c-1.682,0-3.046-1.092-3.046-2.438v-30.255
	c0-1.346,1.364-2.437,3.046-2.437l0,0c1.682,0,3.046,1.091,3.046,2.437V1262.182z"/>
<path fill="#3879BE" d="M612.332,1269.27c0,1.259-1.363,2.28-3.046,2.28l0,0c-1.682,0-3.046-1.021-3.046-2.28v-28.306
	c0-1.259,1.364-2.28,3.046-2.28l0,0c1.683,0,3.046,1.021,3.046,2.28V1269.27z"/>
<path fill="#3879BE" d="M611.748,1283.529c0.747,1.121,0.171,2.816-1.285,3.787l0,0c-1.455,0.969-3.24,0.847-3.987-0.274
	l-16.772-25.18c-0.746-1.12-0.171-2.815,1.285-3.784l0,0c1.456-0.971,3.242-0.848,3.987,0.271L611.748,1283.529z"/>
<polygon fill="#3879BE" points="638.357,1291.581 608.213,1291.581 601.287,1276.586 640.678,1276.586 "/>
<path fill="#FFFFFF" d="M640.678,1279.596c0,0.853-0.691,1.544-1.544,1.544H602.41c-0.853,0-1.543-0.691-1.543-1.544l0,0
	c0-0.854,0.69-1.544,1.543-1.544h36.724C639.986,1278.052,640.678,1278.742,640.678,1279.596L640.678,1279.596z"/>
<path fill="#FFFFFF" d="M641.878,1284.061c0,0.854-0.69,1.544-1.543,1.544h-36.724c-0.854,0-1.544-0.69-1.544-1.544l0,0
	c0-0.852,0.69-1.544,1.544-1.544h36.724C641.188,1282.517,641.878,1283.209,641.878,1284.061L641.878,1284.061z"/>
<path fill="#FFFFFF" d="M640.678,1288.527c0,0.854-0.61,1.544-1.363,1.544h-32.43c-0.754,0-1.364-0.69-1.364-1.544l0,0
	c0-0.854,0.61-1.545,1.364-1.545h32.43C640.067,1286.982,640.678,1287.674,640.678,1288.527L640.678,1288.527z"/>
<g>
	<g>
		<g>
			<g>
				<path fill="#474C54" d="M624.618,1260.455h-2.646v-27.302c-0.002-1.634-1.326-2.96-2.966-2.966l0,0
					c-1.646,0.006-2.963,1.332-2.973,2.966l0,0v27.302h-2.642v-27.302c0-3.095,2.513-5.604,5.614-5.604l0,0
					c3.098,0,5.611,2.509,5.611,5.604l0,0V1260.455L624.618,1260.455z"/>
			</g>
		</g>
	</g>
	<g>
		<g>
			<g>
				<path fill="#474C54" d="M633.195,1260.455h-2.64v-22.619c-0.008-1.638-1.335-2.963-2.97-2.968l0,0
					c-1.64,0.005-2.968,1.33-2.968,2.968l0,0h-2.646c0-3.099,2.515-5.61,5.613-5.61l0,0c3.092,0,5.609,2.512,5.609,5.61l0,0
					V1260.455L633.195,1260.455z"/>
			</g>
		</g>
	</g>
	<g>
		<g>
			<g>
				<path fill="#474C54" d="M639.252,1291.222c-1.702,1.761-4.199,2.674-7.187,2.671l0,0h-20.663c-2.103,0-3.988-0.991-5.184-2.526
					l0,0l-0.04-0.048l-0.04-0.06c-0.008-0.009-14.46-22.661-16.645-26.32l0,0c-0.422-0.743-1.421-2.243-1.449-4.096l0,0
					c0-3.638,2.949-6.583,6.588-6.583l0,0c2.254,0,4.247,1.137,5.437,2.864l0,0l4.747,5.85v-22.019c0-3.098,2.513-5.608,5.607-5.608
					l0,0c3.099,0,5.61,2.511,5.61,5.608l0,0h-2.642c0-1.639-1.33-2.961-2.969-2.963l0,0c-1.637,0.002-2.964,1.324-2.969,2.963l0,0
					v29.471l-9.523-11.746l-0.032-0.039c-0.706-1.052-1.907-1.739-3.267-1.739l0,0c-2.176,0.002-3.938,1.765-3.945,3.941l0,0
					c-0.034,0.765,0.647,2.071,1.074,2.743l0,0c1.051,1.76,5.216,8.354,9.105,14.466l0,0c3.643,5.74,7.043,11.079,7.455,11.727l0,0
					c0.727,0.897,1.834,1.469,3.08,1.472l0,0h20.663c2.473-0.006,4.173-0.719,5.293-1.869l0,0c1.122-1.157,1.772-2.873,1.772-5.194
					l0,0v-35.429c0-1.647-1.327-2.965-2.966-2.971l0,0c-1.644,0.006-2.966,1.323-2.97,2.971l0,0h-2.64
					c0-3.104,2.509-5.612,5.609-5.612l0,0c3.093,0,5.608,2.509,5.608,5.612l0,0v35.429c0,0.012,0,0.018,0,0.028l0,0
					C641.773,1287.013,640.957,1289.471,639.252,1291.222L639.252,1291.222z"/>
			</g>
		</g>
	</g>
</g>
<line fill="none" stroke="#3270B0" stroke-width="3" stroke-miterlimit="10" x1="275.204" y1="1025.486" x2="275.204" y2="1172.915"/>
<line fill="none" stroke="#3270B0" stroke-width="3" stroke-miterlimit="10" x1="486.49" y1="1025.486" x2="486.49" y2="1172.915"/>
<path fill="none" stroke="#3872B1" stroke-width="5" stroke-miterlimit="10" d="M525.713,988.792
	c12.631-23.392,19.806-50.165,19.806-78.613c0-91.513-74.185-165.698-165.698-165.698c-91.511,0-165.696,74.186-165.696,165.698
	c0,28.448,7.173,55.222,19.804,78.613"/>
<path fill="none" stroke="#3872B1" stroke-width="12" stroke-miterlimit="10" d="M514.754,982.435
	c11.726-21.719,19.195-46.838,19.195-73.252c0-84.964-68.876-153.84-153.841-153.84c-84.964,0-153.841,68.876-153.841,153.84
	c0,26.414,7.331,52.163,19.059,73.882"/>
<text transform="matrix(1 0 0 1 31.4355 94.7231)" fill="#FFFFFF" font-family="'FZCQJW--GB1-0'" font-size="52.5384" letter-spacing="10">俏苗学车</text>
<text transform="matrix(1 0 0 1 272.2402 945.4199)" fill="#040000" font-family="'FZCQJW--GB1-0'" font-size="44.8016" letter-spacing="8">模拟考试</text>
<text transform="matrix(1 0 0 1 309.4043 973.8994)" fill="#4B4C4C" font-family="'FZCQJW--GB1-0'" font-size="20.838" letter-spacing="4">最高分:84</text>
<text transform="matrix(1 0 0 1 307.4126 999.8926)" fill="#4B4C4C" font-family="'FZCQJW--GB1-0'" font-size="20.838" letter-spacing="4">平均用时:15</text>
<path fill="#FFFFFF" d="M29.683,209.676v440.347c0,16.376,13.002,29.653,29.042,29.653h632.175
	c16.039,0,29.042-13.277,29.042-29.653V209.676H29.683z"/>
<path fill="#3879BE" d="M720,147.09c0-15.151-13.062-27.09-29.101-27.09H58.725C42.686,120,30,131.939,30,147.09V210h690V147.09z"/>
<line fill="none" stroke="#3270B0" stroke-width="3" stroke-miterlimit="10" x1="34.147" y1="506.084" x2="724.405" y2="506.084"/>
<path fill="#3879BE" d="M203.201,534.05v7.282h-83.756v-7.282c0-4.024,3.259-7.282,7.283-7.282h69.189
	C195.918,526.768,203.201,526.768,203.201,534.05"/>
<path fill="#F1F2F1" d="M203.201,541.332v61.907c0,4.025-3.26,7.285-7.283,7.285h-69.189c-4.024,0-7.283-3.26-7.283-7.285v-61.907
	H203.201z"/>
<path fill="#3879BE" d="M194.097,555.899v20.028h-32.774v-23.67h29.132C192.457,552.257,194.097,553.896,194.097,555.899"/>
<path fill="#3879BE" d="M194.097,575.927v20.027c0,2.003-1.64,3.644-3.643,3.644h-29.132v-23.67H194.097z"/>
<path fill="#3879BE" d="M161.323,575.927v23.67H132.19c-2.002,0-3.643-1.641-3.643-3.644v-20.027H161.323z"/>
<path fill="#3879BE" d="M161.323,552.257v23.67h-32.775v-20.028c0-2.003,1.64-3.642,3.643-3.642H161.323z"/>
<path fill="#474C54" d="M203.201,539.513h-74.653c-1.005,0-1.819,0.816-1.819,1.819c0,1.004,0.814,1.823,1.819,1.823h72.832v60.084
	c0,3.012-2.45,5.462-5.462,5.462h-69.189c-3.011,0-5.463-2.45-5.463-5.462V534.05c0-3.011,2.452-5.462,5.463-5.462h69.179
	c0.914,0.01,5.473,0.321,5.473,5.462c0,1.005,0.814,1.82,1.821,1.82c1.007,0,1.82-0.815,1.82-1.82c0-7.202-5.957-9.105-9.103-9.105
	h-69.189c-5.02,0-9.104,4.087-9.104,9.105v69.188c0,5.021,4.084,9.104,9.104,9.104h69.189c5.02,0,9.103-4.084,9.103-9.104v-61.907
	C205.021,540.329,204.208,539.513,203.201,539.513"/>
<path fill="#474C54" d="M128.548,532.229c-1.005,0-1.819,0.817-1.819,1.821c0,1.005,0.814,1.82,1.819,1.82h3.643
	c1.007,0,1.821-0.815,1.821-1.82c0-1.004-0.814-1.821-1.821-1.821H128.548z"/>
<path fill="#474C54" d="M139.474,532.229c-1.007,0-1.82,0.817-1.82,1.821c0,1.005,0.813,1.82,1.82,1.82h3.642
	c1.007,0,1.821-0.815,1.821-1.82c0-1.004-0.814-1.821-1.821-1.821H139.474z"/>
<path fill="#474C54" d="M192.276,532.229c-1.006,0-1.821,0.817-1.821,1.821c0,1.005,0.815,1.82,1.821,1.82h3.642
	c1.005,0,1.82-0.815,1.82-1.82c0-1.004-0.814-1.821-1.82-1.821H192.276z"/>
<path fill="#474C54" d="M132.19,554.078h21.85c1.007,0,1.821-0.815,1.821-1.82c0-1.004-0.814-1.82-1.821-1.82h-21.85
	c-3.011,0-5.462,2.45-5.462,5.461v20.028c0,1.008,0.814,1.819,1.819,1.819h30.954v20.03H132.19c-1.002,0-1.82-0.817-1.82-1.823
	V583.21c0-1.007-0.814-1.82-1.822-1.82c-1.005,0-1.819,0.813-1.819,1.82v12.744c0,3.014,2.451,5.463,5.462,5.463h58.264
	c3.013,0,5.463-2.45,5.463-5.463v-40.055c0-3.011-2.451-5.461-5.463-5.461h-29.132c-1.007,0-1.821,0.815-1.821,1.82v21.85H130.37
	v-18.208C130.37,554.896,131.188,554.078,132.19,554.078 M190.455,597.777h-27.311v-20.03h29.132v18.208
	C192.276,596.96,191.458,597.777,190.455,597.777 M163.144,554.078h27.311c1.003,0,1.821,0.818,1.821,1.821v18.208h-29.132V554.078z
	"/>
<rect x="117.624" y="524.944" fill="none" width="87.397" height="87.398"/>
<path fill="#3879BE" d="M628.106,549.913h-16.386c-4.024,0-7.285-3.258-7.285-7.282v-16.388L628.106,549.913z"/>
<path fill="#474C54" d="M629.788,549.214c-0.092-0.221-0.227-0.424-0.396-0.591l-23.67-23.667c-0.338-0.341-0.801-0.533-1.287-0.533
	h-38.234c-5.02,0-9.105,4.083-9.105,9.104v69.188c0,7.201,5.958,9.105,9.105,9.105h54.623c5.02,0,9.104-4.085,9.104-9.105v-52.803
	C629.929,549.673,629.88,549.434,629.788,549.214 M620.824,608.179h-54.611c-0.915-0.012-5.473-0.321-5.473-5.463v-69.188
	c0-3.011,2.45-5.461,5.461-5.461h37.482l20.026,20.027h-11.989c-3.011,0-5.462-2.452-5.462-5.463v-5.462
	c0-1.005-0.815-1.82-1.823-1.82c-1.004,0-1.818,0.815-1.818,1.82v5.462c0,5.019,4.083,9.104,9.104,9.104h14.567v50.98
	C626.288,605.729,623.835,608.179,620.824,608.179"/>
<path fill="#474C54" d="M611.185,565.014l-7.28-7.286c-0.711-0.709-1.861-0.709-2.575,0c-0.71,0.715-0.71,1.866,0,2.578l4.175,4.176
	h-22.916c-3.15,0-9.104,1.9-9.104,9.106v3.64c0,1.006,0.815,1.821,1.821,1.821c1.007,0,1.82-0.815,1.82-1.821v-3.64
	c0-5.143,4.561-5.457,5.462-5.464h22.916l-4.175,4.173c-0.71,0.711-0.71,1.864,0,2.576c0.354,0.354,0.821,0.534,1.288,0.534
	s0.932-0.179,1.287-0.534l7.28-7.282c0.169-0.168,0.305-0.37,0.395-0.594c0.187-0.442,0.187-0.946,0-1.389
	C611.489,565.383,611.354,565.179,611.185,565.014"/>
<path fill="#474C54" d="M609.899,577.226c-1.007,0-1.821,0.813-1.821,1.82v3.641c0,5.14-4.56,5.452-5.461,5.464H579.7l4.177-4.177
	c0.709-0.712,0.709-1.862,0-2.574c-0.713-0.713-1.866-0.713-2.576,0l-7.281,7.281c-0.17,0.167-0.303,0.37-0.395,0.594
	c-0.183,0.444-0.183,0.948,0,1.39c0.092,0.227,0.225,0.426,0.395,0.593l7.281,7.283c0.356,0.355,0.821,0.534,1.287,0.534
	c0.465,0,0.932-0.179,1.289-0.534c0.709-0.711,0.709-1.864,0-2.575l-4.177-4.175h22.917c3.146,0,9.104-1.901,9.104-9.104v-3.641
	C611.721,578.039,610.906,577.226,609.899,577.226"/>
<rect x="549.813" y="524.424" fill="none" width="87.398" height="87.397"/>
<path fill="#326A9D" d="M428.56,351.446l-28.275,28.277v-19.577c0-4.806,3.893-8.701,8.698-8.701h6.526H428.56z"/>
<path fill="#3879BE" d="M428.56,305.771v45.675h-19.577c-4.806,0-8.698,3.895-8.698,8.701v19.577h-63.079
	c-4.807,0-8.699-3.894-8.699-8.701v-36.978v-28.274c0,0,0-8.702,8.699-8.702h56.553h26.103
	C424.668,297.068,428.56,300.963,428.56,305.771"/>
<path fill="#FFFFFF" d="M393.758,281.843v13.051c0,1.196-0.979,2.174-2.173,2.174h-26.103c-1.196,0-2.175-0.979-2.175-2.174v-13.051
	c0-1.196,0.979-2.174,2.175-2.174h26.103C392.778,279.669,393.758,280.647,393.758,281.843"/>
<path fill="#FFFFFF" d="M393.758,334.045v13.052c0,1.195-0.979,2.174-2.173,2.174h-26.103c-1.196,0-2.175-0.979-2.175-2.174v-13.052
	c0-1.195,0.979-2.174,2.175-2.174h26.103C392.778,331.871,393.758,332.85,393.758,334.045"/>
<path fill="#FFFFFF" d="M393.758,307.944v13.051c0,1.197-0.979,2.176-2.173,2.176h-26.103c-1.196,0-2.175-0.979-2.175-2.176v-13.051
	c0-1.196,0.979-2.173,2.175-2.173h26.103C392.778,305.771,393.758,306.748,393.758,307.944"/>
<path fill="#F1F2F1" d="M369.832,362.322v4.351c0,1.197-0.978,2.175-2.174,2.175h-26.102c-1.194,0-2.174-0.979-2.174-2.175v-4.351
	c0-1.196,0.979-2.175,2.174-2.175h26.102C368.854,360.146,369.832,361.126,369.832,362.322"/>
<path fill="#474C54" d="M428.56,303.593c-1.2,0-2.175,0.974-2.175,2.177v44.775l-23.926,23.927v-14.326
	c0-3.597,2.927-6.525,6.523-6.525h6.526c1.203,0,2.177-0.973,2.177-2.175c0-1.202-0.974-2.175-2.177-2.175h-6.526
	c-5.995,0-10.875,4.88-10.875,10.875v17.401h-60.902c-3.597,0-6.525-2.927-6.525-6.525v-65.24c0.012-1.093,0.385-6.538,6.525-6.538
	h17.401c1.205,0,2.176-0.973,2.176-2.176s-0.972-2.174-2.176-2.174h-17.401c-8.602,0-10.875,7.114-10.875,10.876v65.252
	c0,5.997,4.88,10.875,10.875,10.875h63.079c0.29,0,0.574-0.059,0.835-0.171c0.268-0.11,0.504-0.269,0.705-0.468l28.274-28.275
	c0.406-0.407,0.637-0.96,0.637-1.538v-45.675C430.735,304.567,429.76,303.593,428.56,303.593"/>
<path fill="#474C54" d="M410.521,306.407c-0.848-0.851-2.226-0.851-3.074,0l-6.523,6.522c-0.202,0.202-0.363,0.442-0.473,0.71
	c-0.221,0.53-0.221,1.131,0,1.661c0.109,0.268,0.271,0.508,0.473,0.708l6.523,6.524c0.424,0.424,0.981,0.637,1.535,0.637
	c0.559,0,1.114-0.213,1.539-0.637c0.851-0.851,0.851-2.226,0-3.077l-2.812-2.812h7.799c4.79,0,6.526-3.901,6.526-6.524v-17.401
	c0-4.788-3.902-6.525-6.526-6.525h-13.05c-1.203,0-2.175,0.973-2.175,2.176c0,1.204,0.972,2.175,2.175,2.175h13.024
	c1.005,0.026,2.202,0.423,2.202,2.175v17.375c-0.026,1.003-0.423,2.201-2.177,2.201h-7.799l2.812-2.813
	C411.372,308.632,411.372,307.257,410.521,306.407"/>
<path fill="#474C54" d="M341.555,316.645h13.051c1.205,0,2.176-0.972,2.176-2.175c0-1.204-0.972-2.175-2.176-2.175h-13.051
	c-2.624,0-6.524,1.739-6.524,6.526v17.4c0,2.624,1.736,6.526,6.524,6.526h7.801l-2.814,2.812c-0.849,0.85-0.849,2.225,0,3.076
	c0.425,0.425,0.983,0.637,1.539,0.637c0.558,0,1.114-0.211,1.539-0.637l6.523-6.523c0.201-0.202,0.36-0.442,0.471-0.711
	c0.219-0.53,0.219-1.129,0-1.659c-0.111-0.269-0.271-0.509-0.471-0.71l-6.523-6.524c-0.85-0.851-2.226-0.851-3.078,0
	c-0.849,0.851-0.849,2.227,0,3.076l2.814,2.813h-7.801c-1.754,0-2.148-1.198-2.174-2.176v-17.4
	C339.381,317.068,340.577,316.671,341.555,316.645"/>
<path fill="#474C54" d="M378.532,366.672c-1.202,0-2.175,0.973-2.175,2.175c0,1.202,0.973,2.175,2.175,2.175h2.175
	c1.203,0,2.175-0.973,2.175-2.175c0-1.202-0.972-2.175-2.175-2.175H378.532z"/>
<path fill="#474C54" d="M389.409,366.672h-2.177c-1.202,0-2.174,0.973-2.174,2.175c0,1.202,0.972,2.175,2.174,2.175h2.177
	c1.2,0,2.176-0.973,2.176-2.175C391.585,367.646,390.609,366.672,389.409,366.672"/>
<path fill="#474C54" d="M365.482,299.245h26.103c2.397,0,4.35-1.949,4.35-4.351v-13.051c0-2.401-1.952-4.35-4.35-4.35h-26.103
	c-2.4,0-4.351,1.948-4.351,4.35v13.051C361.132,297.296,363.083,299.245,365.482,299.245 M365.482,281.843h26.103v13.051
	l-26.103-0.006V281.843z"/>
<path fill="#474C54" d="M365.482,325.344h26.103c2.397,0,4.35-1.948,4.35-4.35v-13.051c0-2.4-1.952-4.351-4.35-4.351h-26.103
	c-2.4,0-4.351,1.951-4.351,4.351v13.051C361.132,323.396,363.083,325.344,365.482,325.344 M365.482,307.944h26.103v13.051
	l-26.103-0.005V307.944z"/>
<path fill="#474C54" d="M365.482,351.446h26.103c2.397,0,4.35-1.948,4.35-4.349v-13.052c0-2.399-1.952-4.349-4.35-4.349h-26.103
	c-2.4,0-4.351,1.95-4.351,4.349v13.052C361.132,349.498,363.083,351.446,365.482,351.446 M365.482,334.045h26.103v13.052
	l-26.103-0.007V334.045z"/>
<path fill="#474C54" d="M341.555,371.022h26.102c2.398,0,4.35-1.95,4.35-4.35v-4.351c0-2.399-1.952-4.35-4.35-4.35h-26.102
	c-2.398,0-4.35,1.95-4.35,4.35v4.351C337.205,369.072,339.157,371.022,341.555,371.022 M341.555,362.322h26.102v4.351l-26.102-0.006
	V362.322z"/>
<path fill="#474C54" d="M389.409,357.972h-10.877c-1.202,0-2.175,0.973-2.175,2.174c0,1.203,0.973,2.175,2.175,2.175h10.877
	c1.2,0,2.176-0.972,2.176-2.175C391.585,358.945,390.609,357.972,389.409,357.972"/>
<rect x="326.33" y="277.494" fill="none" width="104.406" height="104.404"/>
<line fill="none" stroke="#3270B0" stroke-width="3" stroke-miterlimit="10" x1="274.826" y1="513.378" x2="274.826" y2="660.807"/>
<line fill="none" stroke="#3270B0" stroke-width="3" stroke-miterlimit="10" x1="486.113" y1="513.378" x2="486.113" y2="660.807"/>
<path fill="none" stroke="#3872B1" stroke-width="5" stroke-miterlimit="10" d="M525.336,473.058
	c12.631-23.392,19.805-50.165,19.805-78.614c0-91.512-74.186-165.697-165.698-165.697c-91.512,0-165.696,74.185-165.696,165.697
	c0,28.449,7.174,55.222,19.805,78.614"/>
<path fill="none" stroke="#3872B1" stroke-width="12" stroke-miterlimit="10" d="M514.332,466.261
	c11.728-21.718,19.164-46.859,19.164-73.272c0-84.964-68.878-153.84-153.843-153.84c-84.964,0-153.841,68.876-153.841,153.84
	c0,26.414,7.331,52.163,19.058,73.881"/>
<path fill="none" stroke="#52B33F" stroke-miterlimit="10" d="M379.442,560.142"/>
<path fill="none" stroke="#52B33F" stroke-miterlimit="10" d="M233.551,473.058"/>
<path fill="none" stroke="#52B33F" stroke-miterlimit="10" d="M525.336,473.058"/>
<rect x="230.387" y="468.449" transform="matrix(0.8791 -0.4766 0.4766 0.8791 -194.6909 171.6368)" fill="#3879BE" width="21.291" height="2.394"/>
<rect x="507.267" y="468.324" transform="matrix(-0.8791 -0.4766 0.4766 -0.8791 749.461 1129.1193)" fill="#3879BE" width="21.291" height="2.394"/>
<rect x="230.949" y="984.805" transform="matrix(0.8791 -0.4766 0.4766 0.8791 -440.7228 234.3301)" fill="#3879BE" width="21.291" height="2.394"/>
<rect x="507.704" y="984.388" transform="matrix(-0.8791 -0.4766 0.4766 -0.8791 504.315 2099.0784)" fill="#3879BE" width="21.291" height="2.394"/>
<g>
	
		<text transform="matrix(1 0 0 1 508.4199 188.4028)" fill="#040000" font-family="'FZCQJW--GB1-0'" font-size="39.6624" letter-spacing="7">科目四</text>
</g>
<path fill="#FFFFFF" d="M286.287,208.223c0,10.329-6.064,18.703-13.545,18.703H112.541c-7.48,0-13.545-8.374-13.545-18.703v-50.352
	c0-10.33,6.064-18.703,13.545-18.703h160.201c7.48,0,13.545,8.373,13.545,18.703V208.223z"/>
<text transform="matrix(1 0 0 1 125.1655 187.6719)" fill="#040000" font-family="'FZCQJW--GB1-0'" font-size="39.6624" letter-spacing="7">科目一</text>
<text transform="matrix(1 0 0 1 272.9038 432.8965)" fill="#040000" font-family="'FZCQJW--GB1-0'" font-size="44.8016" letter-spacing="8">顺序练习</text>
<text transform="matrix(1 0 0 1 318.0645 459.2935)" fill="#4B4C4C" font-family="'FZCQJW--GB1-0'" font-size="20.838" letter-spacing="4">135/1315</text>
<text transform="matrix(1 0 0 1 320.5791 485.2842)" fill="#4B4C4C" font-family="'FZCQJW--GB1-0'" font-size="20.838" letter-spacing="4">错误数:32</text>
<text transform="matrix(1 0 0 1 98.9961 649.1475)" fill="#040000" font-family="'FZCQJW--GB1-0'" font-size="31.2569">专项练习</text>
<text transform="matrix(1 0 0 1 317.2739 649.1475)" fill="#040000" font-family="'FZCQJW--GB1-0'" font-size="31.2569">错题汇总</text>
<text transform="matrix(1 0 0 1 532.6904 649.1475)" fill="#040000" font-family="'FZCQJW--GB1-0'" font-size="31.2569">随机练习</text>
<path fill="#3879BE" d="M397.389,537.17h9.104c3.022,0,5.463,2.439,5.463,5.463v61.905c0,3.022-2.44,5.463-5.463,5.463H351.87
	c-3.024,0-5.461-2.441-5.461-5.463v-61.905c0-3.024,2.438-5.463,5.461-5.463h9.104v5.463h36.414V537.17z"/>
<path fill="#FFFFFF" d="M397.389,537.17v5.463h-36.414v-5.463c0-1.001,0.818-1.821,1.819-1.821h7.284
	c0-5.026,4.08-9.104,9.103-9.104c5.026,0,9.104,4.078,9.104,9.104h7.283C396.569,535.35,397.389,536.169,397.389,537.17"/>
<path fill="#FFFFFF" d="M404.672,549.917v50.98c0,1-0.82,1.821-1.821,1.821h-47.339c-1.001,0-1.821-0.82-1.821-1.821v-50.98H404.672
	z"/>
<path fill="#FFFFFF" d="M377.359,560.841v3.64c0,1.002-0.819,1.822-1.819,1.822h-10.924c-1.002,0-1.822-0.819-1.822-1.822v-3.64
	c0-1.001,0.82-1.821,1.822-1.821h10.924C376.54,559.02,377.359,559.839,377.359,560.841"/>
<path fill="#474C54" d="M357.332,544.455h43.7c1.007,0,1.819-0.817,1.819-1.821c0-1.007-0.813-1.823-1.819-1.823h-1.82v-3.64
	c0-2.007-1.635-3.642-3.643-3.642h-5.613c-0.87-5.158-5.37-9.104-10.774-9.104c-5.403,0-9.902,3.946-10.773,9.104h-5.614
	c-2.007,0-3.642,1.635-3.642,3.642v3.64h-1.821c-1.007,0-1.82,0.816-1.82,1.823C355.512,543.637,356.324,544.455,357.332,544.455
	 M362.794,537.17h7.284c1.007,0,1.82-0.816,1.82-1.821c0-4.017,3.266-7.282,7.283-7.282c4.018,0,7.283,3.265,7.283,7.282
	c0,1.004,0.813,1.821,1.821,1.821h7.283v3.64h-32.774V537.17z"/>
<path fill="#474C54" d="M351.87,549.917v50.98c0,2.008,1.633,3.642,3.642,3.642h47.339c2.008,0,3.642-1.633,3.642-3.642v-50.98
	c0-1.005-0.813-1.822-1.82-1.822h-50.981C352.683,548.095,351.87,548.911,351.87,549.917 M355.512,551.736h47.339v49.161h-47.339
	V551.736z"/>
<path fill="#474C54" d="M381.002,533.528h-3.643c-1.006,0-1.819,0.817-1.819,1.821s0.813,1.821,1.819,1.821h3.643
	c1.007,0,1.82-0.816,1.82-1.821S382.009,533.528,381.002,533.528"/>
<path fill="#474C54" d="M397.389,586.332h-6.529l-6.749-6.75c-0.712-0.712-1.863-0.712-2.575,0l-9.637,9.637l-4.175-4.175
	c-0.34-0.341-0.802-0.534-1.288-0.534h-5.46c-1.008,0-1.822,0.817-1.822,1.822c0,1.004,0.814,1.82,1.822,1.82h4.708l4.93,4.929
	c0.353,0.357,0.821,0.534,1.286,0.534c0.465,0,0.932-0.177,1.288-0.534l9.637-9.636l5.996,5.995c0.341,0.34,0.805,0.533,1.286,0.533
	h7.284c1.006,0,1.822-0.815,1.822-1.82C399.211,587.146,398.395,586.332,397.389,586.332"/>
<path fill="#474C54" d="M406.492,535.35c-1.004,0-1.82,0.816-1.82,1.821c0,1.004,0.816,1.821,1.82,1.821
	c2.008,0,3.642,1.633,3.642,3.642v61.905c0,2.008-1.634,3.641-3.642,3.641H351.87c-2.009,0-3.642-1.633-3.642-3.641v-61.905
	c0-2.009,1.633-3.642,3.642-3.642c1.007,0,1.821-0.817,1.821-1.821c0-1.005-0.814-1.821-1.821-1.821
	c-4.017,0-7.283,3.268-7.283,7.284v61.905c0,4.019,3.266,7.282,7.283,7.282h54.622c4.018,0,7.283-3.263,7.283-7.282v-61.905
	C413.775,538.617,410.51,535.35,406.492,535.35"/>
<path fill="#474C54" d="M364.616,568.125h10.924c2.006,0,3.64-1.634,3.64-3.644v-3.64c0-2.007-1.634-3.641-3.64-3.641h-10.924
	c-2.01,0-3.642,1.634-3.642,3.641v3.64C360.975,566.491,362.606,568.125,364.616,568.125 M364.616,560.841h10.924v3.64
	l-10.924-0.004V560.841z"/>
<path fill="#474C54" d="M384.644,564.481h5.461v5.463c0,1.004,0.817,1.819,1.821,1.819c1.007,0,1.821-0.815,1.821-1.819v-7.283
	c0-1.005-0.814-1.821-1.821-1.821h-7.282c-1.008,0-1.821,0.816-1.821,1.821C382.822,563.665,383.636,564.481,384.644,564.481"/>
<path fill="#474C54" d="M362.794,575.407h14.565c1.008,0,1.821-0.815,1.821-1.82s-0.813-1.823-1.821-1.823h-14.565
	c-1.007,0-1.819,0.817-1.819,1.823S361.787,575.407,362.794,575.407"/>
<rect x="335.483" y="524.424" fill="none" width="87.397" height="87.397"/>
<text transform="matrix(0.9444 0 0 1 99.374 1156.876)" fill="#040000" font-family="'FZCQJW--GB1-0'" font-size="33.0984">考试技巧</text>
<text transform="matrix(1 0 0 1 323.4707 1323.1992)" fill="#040000" font-family="'FZCQJW--GB1-0'" font-size="25.2184">寻找驾校</text>
<text transform="matrix(1 0 0 1 573.0791 1323.1963)" fill="#040000" font-family="'FZCQJW--GB1-0'" font-size="25.2184">交警手势</text>
<rect x="348.032" y="1255.526" fill="#3879BE" width="54.706" height="6.072"/>
<path fill="none" d="M168.399,1306.696"/>
<text transform="matrix(1 0 0 1 75.7095 1323.1992)" fill="#040000" font-family="'FZCQJW--GB1-0'" font-size="25.2184">交通标志</text>
<g>
	<path fill="#3879BE" d="M375.623,1227.848c-16.373,0-29.644,13.28-29.644,29.652c-0.008,4.227,0.88,8.252,2.484,11.903l2.753-1.212
		v-0.005c-1.246-2.826-1.969-5.93-2.152-9.179h10.84c0.043,1.463,0.113,2.918,0.261,4.322l2.989-0.305
		c-0.131-1.308-0.201-2.655-0.24-4.018h11.206v4.818h3.007v-4.818h11.21c-0.104,3.603-0.536,7.031-1.272,10.107l2.928,0.697
		c0.793-3.319,1.246-6.971,1.351-10.805h10.879c-0.222,4.038-1.343,7.833-3.167,11.196l2.645,1.438
		c2.278-4.205,3.576-9.027,3.576-14.143C405.275,1241.128,392.001,1227.848,375.623,1227.848z"/>
	<path fill="#3879BE" d="M359.904,1256.002h-10.84c0.383-6.767,3.259-12.862,7.755-17.35c1.63,1.343,3.398,2.527,5.298,3.504
		C360.82,1246.242,360.044,1250.947,359.904,1256.002z"/>
	<path fill="#3879BE" d="M359.107,1236.64c2.422-1.921,5.189-3.433,8.187-4.426c-1.154,1.342-2.192,2.937-3.089,4.705
		c-0.379,0.749-0.728,1.543-1.068,2.365C361.708,1238.521,360.366,1237.643,359.107,1236.64z"/>
	<path fill="#3879BE" d="M374.12,1256.002h-11.206c0.126-4.614,0.833-8.905,1.957-12.596c2.893,1.128,6.008,1.781,9.249,1.938
		V1256.002z"/>
	<path fill="#3879BE" d="M374.12,1242.338c-2.897-0.156-5.676-0.757-8.256-1.776c0.326-0.798,0.662-1.569,1.028-2.284
		c2.056-4.068,4.654-6.526,7.228-7.206V1242.338z"/>
	<path fill="#3879BE" d="M392.145,1236.644c-1.255,0.999-2.605,1.878-4.034,2.641c-0.331-0.822-0.689-1.616-1.063-2.365
		c-0.897-1.773-1.934-3.363-3.094-4.705C386.96,1233.207,389.723,1234.719,392.145,1236.644z"/>
	<path fill="#3879BE" d="M377.127,1231.071c2.584,0.68,5.171,3.133,7.236,7.206c0.357,0.715,0.696,1.482,1.015,2.274
		c-2.574,1.02-5.354,1.63-8.251,1.796V1231.071z"/>
	<path fill="#3879BE" d="M377.127,1256.002v-10.648c3.246-0.166,6.355-0.837,9.249-1.955c1.124,3.689,1.83,7.984,1.961,12.604
		H377.127z"/>
	<path fill="#3879BE" d="M391.343,1256.002c-0.131-5.055-0.911-9.769-2.214-13.859c1.9-0.972,3.687-2.139,5.315-3.481
		c4.488,4.487,7.354,10.579,7.747,17.341H391.343z"/>
</g>
<path fill="#474C54" d="M396.443,1276.104c-1.625,0.009-3.469,0.627-5.59,1.943l0,0c-5.316,3.32-8,4.854-10.762,4.826
	c-1.411,0-3.015-0.369-5.176-1.236c-2.971-1.185-5.002-2.005-6.165-2.623c-0.544-0.287-0.884-0.531-1.016-0.662
	c0.009-0.009,0.027-0.018,0.079-0.039c0.122-0.057,0.435-0.126,0.879-0.126c2.23-0.035,6.57,1.595,9.167,2.214
	c0.654,0.151,1.28,0.217,1.874,0.217c3.031-0.009,5.55-1.925,5.585-4.635c-0.026-2.493-2.17-4.559-5.742-5.403
	c-5.855-1.437-8.706-2.623-12.871-2.64c-1.088,0-2.256,0.087-3.563,0.27c-8.67,1.285-20.106,10.605-20.232,10.64l-1.081,0.862
	l9.192,13.741l1.099-0.374c0,0,1.028-0.357,2.692-0.728c1.665-0.37,3.921-0.736,6.213-0.736c4.208-0.097,9.044,3.215,16.356,3.268
	c9.201-0.026,15.013-6.458,19.108-8.805c2.661-1.591,4.147-3.813,4.174-6.044c0.009-1.028-0.375-2.082-1.168-2.823
	C398.713,1276.461,397.615,1276.095,396.443,1276.104z M394.966,1283.493c-4.757,2.88-9.881,8.417-17.583,8.391
	c-6.318,0.053-10.753-3.181-16.356-3.276c-3.699,0.004-7.084,0.811-8.766,1.286l-6.378-9.529c1.167-0.876,3.167-2.317,5.559-3.821
	c3.791-2.399,8.614-4.893,12.121-5.354c1.189-0.166,2.204-0.235,3.145-0.235c3.464-0.018,6.091,1.045,12.156,2.544
	c2.945,0.758,3.477,1.978,3.451,2.484c-0.009,0.592-0.681,1.594-2.579,1.628c-0.367,0-0.768-0.044-1.203-0.139
	c-2.266-0.497-6.579-2.258-9.838-2.292c-1.32-0.031-3.041,0.375-3.747,2.048c-0.157,0.339-0.252,0.767-0.252,1.193
	c-0.018,0.776,0.375,1.525,0.862,2.005c1.456,1.386,3.756,2.169,8.235,4.008c2.361,0.941,4.348,1.438,6.3,1.438
	c3.978-0.017,7.093-2.021,12.348-5.263l-0.793-1.28l0.793,1.272c1.804-1.129,3.188-1.499,4.004-1.491
	c1.158,0.122,1.102,0.287,1.215,0.924C397.685,1280.782,396.979,1282.313,394.966,1283.493z M375.544,1227.848
	c-16.374,0-29.645,13.28-29.645,29.652c-0.008,4.227,0.881,8.252,2.484,11.903l2.753-1.212v-0.005
	c-1.247-2.826-1.969-5.93-2.152-9.179h10.839c0.043,1.463,0.113,2.918,0.261,4.322l2.989-0.305c-0.13-1.308-0.2-2.655-0.239-4.018
	h11.205v4.818h3.007v-4.818h11.21c-0.105,3.603-0.536,7.031-1.272,10.107l2.928,0.697c0.793-3.319,1.246-6.971,1.351-10.805h10.88
	c-0.223,4.038-1.343,7.833-3.168,11.196l2.645,1.438c2.278-4.205,3.576-9.027,3.576-14.143
	C405.195,1241.128,391.921,1227.848,375.544,1227.848z M359.824,1256.002h-10.839c0.383-6.767,3.258-12.862,7.755-17.35
	c1.629,1.343,3.398,2.527,5.298,3.504C360.739,1246.242,359.964,1250.947,359.824,1256.002z M359.027,1236.64
	c2.422-1.921,5.189-3.433,8.187-4.426c-1.154,1.342-2.192,2.937-3.089,4.705c-0.379,0.749-0.728,1.543-1.067,2.365
	C361.628,1238.521,360.286,1237.643,359.027,1236.64z M374.04,1256.002h-11.205c0.126-4.614,0.832-8.905,1.956-12.596
	c2.893,1.128,6.008,1.781,9.25,1.938V1256.002z M374.04,1242.338c-2.897-0.156-5.676-0.757-8.256-1.776
	c0.327-0.798,0.663-1.569,1.029-2.284c2.056-4.068,4.653-6.526,7.228-7.206V1242.338z M392.064,1236.644
	c-1.255,0.999-2.605,1.878-4.034,2.641c-0.331-0.822-0.689-1.616-1.063-2.365c-0.897-1.773-1.935-3.363-3.093-4.705
	C386.88,1233.207,389.643,1234.719,392.064,1236.644z M377.047,1231.071c2.583,0.68,5.171,3.133,7.235,7.206
	c0.358,0.715,0.698,1.482,1.016,2.274c-2.574,1.02-5.354,1.63-8.251,1.796V1231.071z M377.047,1256.002v-10.648
	c3.246-0.166,6.356-0.837,9.249-1.955c1.124,3.689,1.83,7.984,1.961,12.604H377.047z M391.263,1256.002
	c-0.131-5.055-0.911-9.769-2.214-13.859c1.9-0.972,3.687-2.139,5.316-3.481c4.487,4.487,7.354,10.579,7.745,17.341H391.263z"/>
<path fill-rule="evenodd" clip-rule="evenodd" fill="#3872B1" stroke="#474C54" stroke-width="7" stroke-miterlimit="10" d="
	M159.114,1293.595H93.021c0,0,23.668-49.57,31.558-66.095l0,0C133.212,1244.024,159.114,1293.595,159.114,1293.595z"/>
<path fill-rule="evenodd" clip-rule="evenodd" fill="#FFFFFF" d="M128.885,1260.605c-1.351,6.634-1.412,16.965-3.148,16.965
	c-1.737,0-1.791-10.334-3.146-16.965c-1.339-6.557,1.408-7.238,3.146-7.238C127.473,1253.367,130.136,1254.461,128.885,1260.605z"/>
<path fill-rule="evenodd" clip-rule="evenodd" fill="#FFFFFF" d="M128.113,1281.695c0,1.327-1.079,2.405-2.403,2.405
	c-1.331,0-2.41-1.078-2.41-2.405c0-1.328,1.079-2.407,2.41-2.407C127.034,1279.288,128.113,1280.367,128.113,1281.695z"/>
<text transform="matrix(0.9444 0 0 1 314.5269 1156.876)" fill="#040000" font-family="'FZCQJW--GB1-0'" font-size="33.0984">难题攻略</text>
<text transform="matrix(0.9444 0 0 1 533.3242 1156.876)" fill="#040000" font-family="'FZCQJW--GB1-0'" font-size="33.0984">考试记录</text>
</svg>
