<?xml version="1.0" encoding="utf-8"?>
<!-- Generator: Adobe Illustrator 16.0.0, SVG Export Plug-In . SVG Version: 6.00 Build 0)  -->
<!DOCTYPE svg PUBLIC "-//W3C//DTD SVG 1.1//EN" "http://www.w3.org/Graphics/SVG/1.1/DTD/svg11.dtd">
<svg version="1.1" id="图层_1" xmlns="http://www.w3.org/2000/svg" xmlns:xlink="http://www.w3.org/1999/xlink" x="0px" y="0px"
	 width="750px" height="1334px" viewBox="0 0 750 1334" enable-background="new 0 0 750 1334" xml:space="preserve">
<rect x="783" y="838" fill="#FFFFFF" width="750" height="496"/>
<rect x="782.5" y="300.5" fill="#979595" stroke="#040000" stroke-miterlimit="10" width="750" height="537"/>
<rect fill="#3270B0" width="750" height="120"/>
<g>
	<path fill="#5B91B6" d="M720.011,83.558c0,9.33-4.431,18.6-12.191,18.6H567.271c-7.762,0-15.907-9.27-15.907-18.6V71.273
		c0-9.329,8.146-15.349,15.907-15.349h140.549c7.761,0,12.191,6.02,12.191,15.349V83.558z"/>
	<line fill="none" stroke="#C8C9CA" stroke-width="2" stroke-miterlimit="10" x1="641" y1="63" x2="641" y2="93"/>
	<g>
		<circle fill="#FFFFFF" cx="587.958" cy="77.295" r="2.368"/>
		<circle fill="#FFFFFF" cx="598.834" cy="76.74" r="4.031"/>
		<circle fill="#FFFFFF" cx="609.262" cy="77.295" r="2.368"/>
	</g>
	<circle fill="none" stroke="#FFFFFF" stroke-miterlimit="10" cx="674.623" cy="77.256" r="9.981"/>
	<circle fill="#FFFFFF" cx="674.623" cy="77.256" r="4.031"/>
</g>
<text transform="matrix(1 0 0 1 31.4355 94.7231)" fill="#FFFFFF" font-family="'FZCQJW--GB1-0'" font-size="52.5383" letter-spacing="10">俏苗学车</text>
<g>
	<path fill="#4EA1D9" d="M646.268,1287.848c0,0.655-0.531,1.186-1.186,1.186h-7.711c-0.656,0-1.188-0.53-1.188-1.186v-7.316
		c0-0.655,0.531-1.186,1.188-1.186h7.711c0.654,0,1.186,0.53,1.186,1.186V1287.848z"/>
	<path fill="#4EA1D9" d="M630.449,1287.848c0,0.655-0.529,1.186-1.186,1.186h-7.711c-0.656,0-1.186-0.53-1.186-1.186v-7.316
		c0-0.655,0.529-1.186,1.186-1.186h7.711c0.656,0,1.186,0.53,1.186,1.186V1287.848z"/>
	<path fill="#4EA1D9" d="M614.633,1287.848c0,0.655-0.531,1.186-1.188,1.186h-7.711c-0.654,0-1.186-0.53-1.186-1.186v-7.316
		c0-0.655,0.531-1.186,1.186-1.186h7.711c0.656,0,1.188,0.53,1.188,1.186V1287.848z"/>
	<path fill="#4EA1D9" d="M646.268,1271.441c0,0.654-0.531,1.186-1.186,1.186h-7.711c-0.656,0-1.188-0.531-1.188-1.186v-7.316
		c0-0.655,0.531-1.188,1.188-1.188h7.711c0.654,0,1.186,0.532,1.186,1.188V1271.441z"/>
	<path fill="#4EA1D9" d="M630.449,1271.441c0,0.654-0.529,1.186-1.186,1.186h-7.711c-0.656,0-1.186-0.531-1.186-1.186v-7.316
		c0-0.655,0.529-1.188,1.186-1.188h7.711c0.656,0,1.186,0.532,1.186,1.188V1271.441z"/>
	<path fill="#4EA1D9" d="M614.633,1271.441c0,0.654-0.531,1.186-1.188,1.186h-7.711c-0.654,0-1.186-0.531-1.186-1.186v-7.316
		c0-0.655,0.531-1.188,1.186-1.188h7.711c0.656,0,1.188,0.532,1.188,1.188V1271.441z"/>
	<path fill="#4EA1D9" d="M646.268,1255.033c0,0.656-0.531,1.188-1.186,1.188h-7.711c-0.656,0-1.188-0.531-1.188-1.188v-7.314
		c0-0.656,0.531-1.188,1.188-1.188h7.711c0.654,0,1.186,0.531,1.186,1.188V1255.033z"/>
	<path fill="#4EA1D9" d="M630.449,1255.033c0,0.656-0.529,1.188-1.186,1.188h-7.711c-0.656,0-1.186-0.531-1.186-1.188v-7.314
		c0-0.656,0.529-1.188,1.186-1.188h7.711c0.656,0,1.186,0.531,1.186,1.188V1255.033z"/>
	<path fill="#4EA1D9" d="M614.633,1255.033c0,0.656-0.531,1.188-1.188,1.188h-7.711c-0.654,0-1.186-0.531-1.186-1.188v-7.314
		c0-0.656,0.531-1.188,1.186-1.188h7.711c0.656,0,1.188,0.531,1.188,1.188V1255.033z"/>
</g>
<path fill="none" stroke="#4EA1D9" stroke-width="3" stroke-miterlimit="10" d="M657.795,1291.556c0,4.282-3.473,7.753-7.752,7.753
	h-49.27c-4.281,0-7.752-3.471-7.752-7.753v-47.546c0-4.282,3.471-7.752,7.752-7.752h49.27c4.279,0,7.752,3.47,7.752,7.752V1291.556z
	"/>
<line fill="none" stroke="#3270B0" stroke-width="3" stroke-miterlimit="10" x1="0" y1="170" x2="750" y2="170"/>
<line fill="none" stroke="#3270B0" stroke-width="3" stroke-miterlimit="10" x1="0" y1="1215.016" x2="750" y2="1215.016"/>
<text transform="matrix(1 0 0 1 31.4355 157.6172)" fill="#040000" font-family="'HYg2gb3'" font-size="33.5925">&lt; 模拟考试</text>
<text transform="matrix(1 0 0 1 335.4565 155.6172)" fill="#040000" stroke="#000000" stroke-miterlimit="10" font-family="'HYg2gb3'" font-size="25.8404">单选题</text>
<text transform="matrix(1 0 0 1 32.4355 584.0923)"><tspan x="0" y="0" fill="#040000" stroke="#000000" stroke-miterlimit="10" font-family="'HYg2gb3'" font-size="36">单选题卡上的分厘卡似的和饭卡手动阀；看</tspan><tspan x="0" y="50" fill="#040000" stroke="#000000" stroke-miterlimit="10" font-family="'HYg2gb3'" font-size="36">啊看来就是都会发生快递发咯技术都很疯狂</tspan><tspan x="0" y="100" fill="#040000" stroke="#000000" stroke-miterlimit="10" font-family="'HYg2gb3'" font-size="36">啊就开始了好多个法律上的功夫？</tspan></text>
<text transform="matrix(1 0 0 1 609.2617 159.6172)"><tspan x="0" y="0" fill="#2890D0" font-family="'HYg2gb3'" font-size="38.7606">1</tspan><tspan x="19.381" y="0" fill="#040000" font-family="'HYg2gb3'" font-size="33.5925">/1325</tspan></text>
<path fill="#040000" d="M650.529,515.262c0,0.965-0.734,1.747-1.639,1.747H99.108c-0.905,0-1.638-0.782-1.638-1.747V218.756
	c0-0.964,0.733-1.747,1.638-1.747h549.783c0.904,0,1.639,0.782,1.639,1.747V515.262z"/>
<g>
	<circle fill="none" stroke="#C6C4C4" stroke-width="2" stroke-miterlimit="10" cx="94.62" cy="765.863" r="27.48"/>
	<g>
		<path fill="#595958" d="M93.021,753.79h2.296l10.157,24.147h-2.562l-2.809-6.766H88.694l-2.491,6.748l-2.438,0.018L93.021,753.79z
			 M99.31,769.141l-5.105-12.595l-4.734,12.595H99.31z"/>
	</g>
</g>
<g>
	<circle fill="none" stroke="#C6C4C4" stroke-width="2" stroke-miterlimit="10" cx="94.62" cy="852.352" r="27.48"/>
	<g>
		<path fill="#595958" d="M86.804,864.424l-0.018-24.146h8.073c2.272,0,4.003,0.724,5.193,2.172
			c0.954,1.166,1.431,2.515,1.431,4.046c0,1.236-0.324,2.325-0.972,3.267c-0.353,0.52-0.942,1.043-1.766,1.573
			c1.13,0.836,1.925,1.566,2.384,2.19c0.883,1.201,1.325,2.631,1.325,4.292c0,1.872-0.577,3.392-1.731,4.557
			c-0.824,0.837-1.713,1.384-2.667,1.644c-1.037,0.271-2.338,0.406-3.904,0.406H86.804z M89.065,850.875h4.981
			c3.356,0,5.034-1.406,5.034-4.222c0-2.85-1.649-4.275-4.946-4.275h-5.052L89.065,850.875z M89.083,852.925v9.397l4.469,0.017
			c2.179,0.013,3.709-0.252,4.593-0.794c0.483-0.283,0.889-0.701,1.219-1.255c0.482-0.823,0.724-1.719,0.724-2.685
			c0-1.566-0.542-2.791-1.625-3.675c-0.66-0.541-1.408-0.848-2.244-0.918c-0.4-0.023-0.948-0.041-1.643-0.053L89.083,852.925z"/>
	</g>
</g>
<g>
	<circle fill="none" stroke="#C6C4C4" stroke-width="2" stroke-miterlimit="10" cx="94.62" cy="937.738" r="27.48"/>
	<g>
		<path fill="#595958" d="M103.258,931.256l-2.243,0.018c-0.248-1-0.654-1.736-1.219-2.208c-1.084-0.895-2.491-1.342-4.222-1.342
			c-2.732,0-4.805,1.118-6.218,3.356c-0.965,1.531-1.448,3.545-1.448,6.041c0,3.003,0.377,5.205,1.13,6.606
			c0.612,1.153,1.455,2.043,2.526,2.667c1.248,0.73,2.679,1.095,4.292,1.095c2.002,0,3.509-0.53,4.522-1.59
			c0.448-0.459,0.86-1.206,1.237-2.243h2.226c-0.188,1.225-0.5,2.173-0.936,2.844c-1.425,2.226-3.851,3.339-7.278,3.339
			c-3.239,0-5.741-1.024-7.507-3.073c-1.813-2.107-2.72-5.212-2.72-9.31c0-2.555,0.395-4.633,1.183-6.235
			c1.06-2.143,2.485-3.633,4.275-4.47c1.59-0.741,3.268-1.112,5.035-1.112c2.731,0,4.793,0.878,6.182,2.632
			C102.664,929.013,103.058,930.008,103.258,931.256z"/>
	</g>
</g>
<g>
	<circle fill="none" stroke="#C6C4C4" stroke-width="2" stroke-miterlimit="10" cx="94.62" cy="1026.651" r="27.48"/>
	<g>
		<path fill="#595958" d="M85.514,1038.638v-23.953l5.741-0.018c4.439-0.024,7.695,1.048,9.768,3.215
			c1.802,1.884,2.703,4.828,2.703,8.833c0,4.733-1.225,8.042-3.674,9.927c-1.072,0.825-2.473,1.39-4.204,1.696
			c-1.072,0.199-2.526,0.3-4.363,0.3H85.514z M87.705,1016.698v19.89h3.745c2.602,0,4.563-0.306,5.882-0.918
			c1.649-0.753,2.785-2.085,3.41-3.992c0.412-1.272,0.618-3.021,0.618-5.246c0-2.979-0.501-5.152-1.501-6.519
			c-1.578-2.143-4.363-3.215-8.355-3.215H87.705z"/>
	</g>
</g>
<text transform="matrix(1 0 0 1 138.3657 779.0039)" fill="#040000" font-family="'HYg2gb3'" font-size="33.5925">名试着让</text>
<g>
	<text transform="matrix(1 0 0 1 390.4277 779.0039)" fill="#3270B0" font-family="'HYg2gb3'" font-size="33.5925">名试着让</text>
</g>
<text transform="matrix(1 0 0 1 138.3657 866.5244)" fill="#040000" font-family="'HYg2gb3'" font-size="33.5925">名试着让</text>
<text transform="matrix(1 0 0 1 138.3657 954.0449)" fill="#040000" font-family="'HYg2gb3'" font-size="33.5925">名试着让</text>
<text transform="matrix(1 0 0 1 138.3657 1042.5996)" fill="#040000" font-family="'HYg2gb3'" font-size="33.5925">名试着让</text>
<g>
	<circle fill="none" stroke="#C6C4C4" stroke-width="2" stroke-miterlimit="10" cx="347.156" cy="937.738" r="27.48"/>
	<g>
		<path fill="#595958" d="M355.794,931.256l-2.244,0.018c-0.247-1-0.653-1.736-1.219-2.208c-1.083-0.895-2.491-1.342-4.222-1.342
			c-2.732,0-4.805,1.118-6.218,3.356c-0.965,1.531-1.449,3.545-1.449,6.041c0,3.003,0.377,5.205,1.131,6.606
			c0.612,1.153,1.455,2.043,2.526,2.667c1.248,0.73,2.679,1.095,4.292,1.095c2.002,0,3.509-0.53,4.522-1.59
			c0.448-0.459,0.859-1.206,1.236-2.243h2.226c-0.188,1.225-0.501,2.173-0.937,2.844c-1.425,2.226-3.851,3.339-7.277,3.339
			c-3.239,0-5.741-1.024-7.507-3.073c-1.813-2.107-2.721-5.212-2.721-9.31c0-2.555,0.395-4.633,1.184-6.235
			c1.06-2.143,2.485-3.633,4.275-4.47c1.59-0.741,3.268-1.112,5.034-1.112c2.732,0,4.793,0.878,6.183,2.632
			C355.2,929.013,355.594,930.008,355.794,931.256z"/>
	</g>
</g>
<g>
	<circle fill="none" stroke="#C6C4C4" stroke-width="2" stroke-miterlimit="10" cx="347.156" cy="1026.651" r="27.48"/>
	<g>
		<path fill="#595958" d="M338.051,1038.638v-23.953l5.741-0.018c4.44-0.024,7.696,1.048,9.769,3.215
			c1.802,1.884,2.703,4.828,2.703,8.833c0,4.733-1.226,8.042-3.675,9.927c-1.071,0.825-2.473,1.39-4.204,1.696
			c-1.071,0.199-2.526,0.3-4.363,0.3H338.051z M340.241,1016.698v19.89h3.745c2.603,0,4.563-0.306,5.882-0.918
			c1.649-0.753,2.785-2.085,3.409-3.992c0.412-1.272,0.618-3.021,0.618-5.246c0-2.979-0.5-5.152-1.501-6.519
			c-1.578-2.143-4.363-3.215-8.355-3.215H340.241z"/>
	</g>
</g>
<text transform="matrix(1 0 0 1 390.9023 954.0449)" fill="#DBD9D9" font-family="'HYg2gb3'" font-size="33.5925">名试着让</text>
<text transform="matrix(1 0 0 1 390.9023 1042.5996)" fill="#DBD9D9" font-family="'HYg2gb3'" font-size="33.5925">名试着让</text>
<circle fill="#3270B0" cx="346.648" cy="767.977" r="27.48"/>
<text transform="matrix(1 0 0 1 390.4277 865.6221)" fill="#E8353E" font-family="'HYg2gb3'" font-size="33.5925">名试着让</text>
<g>
	<circle fill="#E8353E" cx="346.236" cy="848.166" r="27.068"/>
	<g>
		<g>
			<path fill="#FFFFFF" d="M356.819,837.688c0.717,0.718,0.717,1.879,0,2.596l-21.89,21.891c-0.717,0.717-1.879,0.717-2.596,0
				l-0.648-0.649c-0.716-0.717-0.716-1.878,0-2.594l21.891-21.891c0.717-0.717,1.877-0.717,2.594,0L356.819,837.688z"/>
			<path fill="#FFFFFF" d="M332.333,837.04c0.718-0.718,1.879-0.718,2.596,0l21.89,21.89c0.717,0.717,0.717,1.878,0,2.595
				l-0.648,0.649c-0.715,0.716-1.878,0.716-2.594,0l-21.89-21.892c-0.717-0.716-0.717-1.878,0-2.595L332.333,837.04z"/>
		</g>
	</g>
</g>
<g>
	
		<line fill="none" stroke="#3270B0" stroke-width="3" stroke-miterlimit="10" x1="782.986" y1="898.761" x2="1532.987" y2="898.761"/>
	<g>
		<circle fill="#3270B0" cx="848.583" cy="871.736" r="21.729"/>
		<g>
			<g>
				<path fill="#FFFFFF" d="M862.636,862.07c0.575,0.575,0.574,1.508,0,2.082l-17.571,17.572c-0.575,0.575-1.508,0.575-2.082,0
					l-0.521-0.521c-0.575-0.575-0.575-1.508,0-2.083l17.571-17.571c0.576-0.575,1.508-0.575,2.083,0L862.636,862.07z"/>
				<path fill="#FFFFFF" d="M835.249,870.871c0.575-0.575,1.286-0.796,1.588-0.494l9.239,9.238c0.303,0.303,0.081,1.014-0.494,1.589
					l-0.521,0.521c-0.575,0.575-1.286,0.796-1.589,0.494l-9.239-9.238c-0.302-0.303-0.08-1.015,0.495-1.59L835.249,870.871z"/>
			</g>
		</g>
	</g>
	<text transform="matrix(1 0 0 1 1387.6914 883.4033)" fill="#040000" font-family="'HYg2gb3'" font-size="25.8404">11/1325</text>
	<text transform="matrix(1 0 0 1 1014.5762 883.4033)" fill="#040000" font-family="'HYg2gb3'" font-size="25.8404">7</text>
	<text transform="matrix(1 0 0 1 1026.2109 958.168)" fill="#040000" font-family="'HYg2gb3'" font-size="25.8404">3</text>
	<text transform="matrix(1 0 0 1 940.9365 958.168)" fill="#040000" font-family="'HYg2gb3'" font-size="25.8404">2</text>
	<text transform="matrix(1 0 0 1 855.6641 958.168)" fill="#040000" font-family="'HYg2gb3'" font-size="25.8404">1</text>
	<text transform="matrix(1 0 0 1 889.7725 882.8867)" fill="#040000" font-family="'HYg2gb3'" font-size="25.8404">6</text>
	<g>
		<circle fill="#E8353E" cx="975.871" cy="871.736" r="21.728"/>
		<g>
			<g>
				<path fill="#FFFFFF" d="M984.364,863.325c0.575,0.576,0.575,1.508,0,2.083l-17.57,17.571c-0.575,0.575-1.508,0.575-2.083,0
					l-0.521-0.521c-0.574-0.575-0.574-1.508,0-2.083l17.572-17.571c0.575-0.575,1.508-0.575,2.083,0L984.364,863.325z"/>
				<path fill="#FFFFFF" d="M964.711,862.805c0.576-0.576,1.508-0.576,2.083,0l17.571,17.57c0.575,0.576,0.575,1.509-0.001,2.084
					l-0.52,0.521c-0.574,0.574-1.508,0.574-2.083,0l-17.571-17.572c-0.576-0.574-0.576-1.507-0.001-2.082L964.711,862.805z"/>
			</g>
		</g>
	</g>
	<path fill="none" stroke="#C6C4C4" stroke-width="2" stroke-miterlimit="10" d="M1489.255,1309.027
		c0,11.758-9.531,21.29-21.29,21.29h-30.663c-11.759,0-21.292-9.532-21.292-21.29v-30.664c0-11.758,9.533-21.29,21.292-21.29h30.663
		c11.759,0,21.29,9.532,21.29,21.29V1309.027z"/>
	<path fill="none" stroke="#C6C4C4" stroke-width="2" stroke-miterlimit="10" d="M1404.971,1309.027
		c0,11.758-9.532,21.29-21.29,21.29h-30.664c-11.758,0-21.289-9.532-21.289-21.29v-30.664c0-11.758,9.531-21.29,21.289-21.29h30.664
		c11.758,0,21.29,9.532,21.29,21.29V1309.027z"/>
	<path fill="none" stroke="#C6C4C4" stroke-width="2" stroke-miterlimit="10" d="M1320.687,1309.027
		c0,11.758-9.531,21.29-21.29,21.29h-30.663c-11.759,0-21.291-9.532-21.291-21.29v-30.664c0-11.758,9.532-21.29,21.291-21.29h30.663
		c11.759,0,21.29,9.532,21.29,21.29V1309.027z"/>
	<path fill="none" stroke="#C6C4C4" stroke-width="2" stroke-miterlimit="10" d="M1236.402,1309.027
		c0,11.758-9.53,21.29-21.29,21.29h-30.663c-11.759,0-21.29-9.532-21.29-21.29v-30.664c0-11.758,9.531-21.29,21.29-21.29h30.663
		c11.76,0,21.29,9.532,21.29,21.29V1309.027z"/>
	<path fill="none" stroke="#C6C4C4" stroke-width="2" stroke-miterlimit="10" d="M1152.118,1309.027
		c0,11.758-9.531,21.29-21.29,21.29h-30.663c-11.759,0-21.29-9.532-21.29-21.29v-30.664c0-11.758,9.531-21.29,21.29-21.29h30.663
		c11.759,0,21.29,9.532,21.29,21.29V1309.027z"/>
	<path fill="none" stroke="#C6C4C4" stroke-width="2" stroke-miterlimit="10" d="M1067.834,1309.027
		c0,11.758-9.53,21.29-21.289,21.29h-30.663c-11.76,0-21.291-9.532-21.291-21.29v-30.664c0-11.758,9.531-21.29,21.291-21.29h30.663
		c11.759,0,21.289,9.532,21.289,21.29V1309.027z"/>
	<path fill="none" stroke="#C6C4C4" stroke-width="2" stroke-miterlimit="10" d="M983.551,1309.027
		c0,11.758-9.531,21.29-21.29,21.29h-30.663c-11.759,0-21.29-9.532-21.29-21.29v-30.664c0-11.758,9.531-21.29,21.29-21.29h30.663
		c11.759,0,21.29,9.532,21.29,21.29V1309.027z"/>
	<path fill="none" stroke="#C6C4C4" stroke-width="2" stroke-miterlimit="10" d="M899.267,1309.027
		c0,11.758-9.531,21.29-21.29,21.29h-30.664c-11.758,0-21.289-9.532-21.289-21.29v-30.664c0-11.758,9.531-21.29,21.289-21.29h30.664
		c11.759,0,21.29,9.532,21.29,21.29V1309.027z"/>
	<path fill="none" stroke="#C6C4C4" stroke-width="2" stroke-miterlimit="10" d="M1489.255,1223.157
		c0,11.759-9.531,21.29-21.29,21.29h-30.663c-11.759,0-21.292-9.531-21.292-21.29v-30.663c0-11.759,9.533-21.29,21.292-21.29h30.663
		c11.759,0,21.29,9.531,21.29,21.29V1223.157z"/>
	<path fill="none" stroke="#C6C4C4" stroke-width="2" stroke-miterlimit="10" d="M1404.971,1223.157
		c0,11.759-9.532,21.29-21.29,21.29h-30.664c-11.758,0-21.289-9.531-21.289-21.29v-30.663c0-11.759,9.531-21.29,21.289-21.29h30.664
		c11.758,0,21.29,9.531,21.29,21.29V1223.157z"/>
	<path fill="none" stroke="#C6C4C4" stroke-width="2" stroke-miterlimit="10" d="M1320.687,1223.157
		c0,11.759-9.531,21.29-21.29,21.29h-30.663c-11.759,0-21.291-9.531-21.291-21.29v-30.663c0-11.759,9.532-21.29,21.291-21.29h30.663
		c11.759,0,21.29,9.531,21.29,21.29V1223.157z"/>
	<path fill="none" stroke="#C6C4C4" stroke-width="2" stroke-miterlimit="10" d="M1236.402,1223.157
		c0,11.759-9.53,21.29-21.29,21.29h-30.663c-11.759,0-21.29-9.531-21.29-21.29v-30.663c0-11.759,9.531-21.29,21.29-21.29h30.663
		c11.76,0,21.29,9.531,21.29,21.29V1223.157z"/>
	<path fill="none" stroke="#C6C4C4" stroke-width="2" stroke-miterlimit="10" d="M1152.118,1223.157
		c0,11.759-9.531,21.29-21.29,21.29h-30.663c-11.759,0-21.29-9.531-21.29-21.29v-30.663c0-11.759,9.531-21.29,21.29-21.29h30.663
		c11.759,0,21.29,9.531,21.29,21.29V1223.157z"/>
	<path fill="none" stroke="#C6C4C4" stroke-width="2" stroke-miterlimit="10" d="M1067.834,1223.157
		c0,11.759-9.53,21.29-21.289,21.29h-30.663c-11.76,0-21.291-9.531-21.291-21.29v-30.663c0-11.759,9.531-21.29,21.291-21.29h30.663
		c11.759,0,21.289,9.531,21.289,21.29V1223.157z"/>
	<path fill="none" stroke="#C6C4C4" stroke-width="2" stroke-miterlimit="10" d="M983.551,1223.157
		c0,11.759-9.531,21.29-21.29,21.29h-30.663c-11.759,0-21.29-9.531-21.29-21.29v-30.663c0-11.759,9.531-21.29,21.29-21.29h30.663
		c11.759,0,21.29,9.531,21.29,21.29V1223.157z"/>
	<path fill="none" stroke="#C6C4C4" stroke-width="2" stroke-miterlimit="10" d="M899.267,1223.157
		c0,11.759-9.531,21.29-21.29,21.29h-30.664c-11.758,0-21.289-9.531-21.289-21.29v-30.663c0-11.759,9.531-21.29,21.289-21.29h30.664
		c11.759,0,21.29,9.531,21.29,21.29V1223.157z"/>
	<path fill="none" stroke="#C6C4C4" stroke-width="2" stroke-miterlimit="10" d="M1489.255,1137.288
		c0,11.758-9.531,21.291-21.29,21.291h-30.663c-11.759,0-21.292-9.533-21.292-21.291v-30.664c0-11.757,9.533-21.29,21.292-21.29
		h30.663c11.759,0,21.29,9.533,21.29,21.29V1137.288z"/>
	<path fill="none" stroke="#C6C4C4" stroke-width="2" stroke-miterlimit="10" d="M1404.971,1137.288
		c0,11.758-9.532,21.291-21.29,21.291h-30.664c-11.758,0-21.289-9.533-21.289-21.291v-30.664c0-11.757,9.531-21.29,21.289-21.29
		h30.664c11.758,0,21.29,9.533,21.29,21.29V1137.288z"/>
	<path fill="none" stroke="#C6C4C4" stroke-width="2" stroke-miterlimit="10" d="M1320.687,1137.288
		c0,11.758-9.531,21.291-21.29,21.291h-30.663c-11.759,0-21.291-9.533-21.291-21.291v-30.664c0-11.757,9.532-21.29,21.291-21.29
		h30.663c11.759,0,21.29,9.533,21.29,21.29V1137.288z"/>
	<path fill="none" stroke="#C6C4C4" stroke-width="2" stroke-miterlimit="10" d="M1236.402,1137.288
		c0,11.758-9.53,21.291-21.29,21.291h-30.663c-11.759,0-21.29-9.533-21.29-21.291v-30.664c0-11.757,9.531-21.29,21.29-21.29h30.663
		c11.76,0,21.29,9.533,21.29,21.29V1137.288z"/>
	<path fill="none" stroke="#C6C4C4" stroke-width="2" stroke-miterlimit="10" d="M1152.118,1137.288
		c0,11.758-9.531,21.291-21.29,21.291h-30.663c-11.759,0-21.29-9.533-21.29-21.291v-30.664c0-11.757,9.531-21.29,21.29-21.29h30.663
		c11.759,0,21.29,9.533,21.29,21.29V1137.288z"/>
	<path fill="none" stroke="#C6C4C4" stroke-width="2" stroke-miterlimit="10" d="M1067.834,1137.288
		c0,11.758-9.53,21.291-21.289,21.291h-30.663c-11.76,0-21.291-9.533-21.291-21.291v-30.664c0-11.757,9.531-21.29,21.291-21.29
		h30.663c11.759,0,21.289,9.533,21.289,21.29V1137.288z"/>
	<path fill="none" stroke="#C6C4C4" stroke-width="2" stroke-miterlimit="10" d="M983.551,1137.288
		c0,11.758-9.531,21.291-21.29,21.291h-30.663c-11.759,0-21.29-9.533-21.29-21.291v-30.664c0-11.757,9.531-21.29,21.29-21.29h30.663
		c11.759,0,21.29,9.533,21.29,21.29V1137.288z"/>
	<path fill="none" stroke="#C6C4C4" stroke-width="2" stroke-miterlimit="10" d="M899.267,1137.288
		c0,11.758-9.531,21.291-21.29,21.291h-30.664c-11.758,0-21.289-9.533-21.289-21.291v-30.664c0-11.757,9.531-21.29,21.289-21.29
		h30.664c11.759,0,21.29,9.533,21.29,21.29V1137.288z"/>
	<path fill="none" stroke="#C6C4C4" stroke-width="2" stroke-miterlimit="10" d="M1489.255,1051.419
		c0,11.758-9.531,21.29-21.29,21.29h-30.663c-11.759,0-21.292-9.532-21.292-21.29v-30.663c0-11.759,9.533-21.29,21.292-21.29h30.663
		c11.759,0,21.29,9.531,21.29,21.29V1051.419z"/>
	<path fill="none" stroke="#C6C4C4" stroke-width="2" stroke-miterlimit="10" d="M1404.971,1051.419
		c0,11.758-9.532,21.29-21.29,21.29h-30.664c-11.758,0-21.289-9.532-21.289-21.29v-30.663c0-11.759,9.531-21.29,21.289-21.29h30.664
		c11.758,0,21.29,9.531,21.29,21.29V1051.419z"/>
	<path fill="none" stroke="#C6C4C4" stroke-width="2" stroke-miterlimit="10" d="M1320.687,1051.419
		c0,11.758-9.531,21.29-21.29,21.29h-30.663c-11.759,0-21.291-9.532-21.291-21.29v-30.663c0-11.759,9.532-21.29,21.291-21.29h30.663
		c11.759,0,21.29,9.531,21.29,21.29V1051.419z"/>
	<path fill="none" stroke="#C6C4C4" stroke-width="2" stroke-miterlimit="10" d="M1236.402,1051.419
		c0,11.758-9.53,21.29-21.29,21.29h-30.663c-11.759,0-21.29-9.532-21.29-21.29v-30.663c0-11.759,9.531-21.29,21.29-21.29h30.663
		c11.76,0,21.29,9.531,21.29,21.29V1051.419z"/>
	<path fill="none" stroke="#C6C4C4" stroke-width="2" stroke-miterlimit="10" d="M1152.118,1051.419
		c0,11.758-9.531,21.29-21.29,21.29h-30.663c-11.759,0-21.29-9.532-21.29-21.29v-30.663c0-11.759,9.531-21.29,21.29-21.29h30.663
		c11.759,0,21.29,9.531,21.29,21.29V1051.419z"/>
	<path fill="none" stroke="#C6C4C4" stroke-width="2" stroke-miterlimit="10" d="M1067.834,1051.419
		c0,11.758-9.53,21.29-21.289,21.29h-30.663c-11.76,0-21.291-9.532-21.291-21.29v-30.663c0-11.759,9.531-21.29,21.291-21.29h30.663
		c11.759,0,21.289,9.531,21.289,21.29V1051.419z"/>
	<path fill="none" stroke="#C6C4C4" stroke-width="2" stroke-miterlimit="10" d="M983.551,1051.419
		c0,11.758-9.531,21.29-21.29,21.29h-30.663c-11.759,0-21.29-9.532-21.29-21.29v-30.663c0-11.759,9.531-21.29,21.29-21.29h30.663
		c11.759,0,21.29,9.531,21.29,21.29V1051.419z"/>
	<path fill="none" stroke="#C6C4C4" stroke-width="2" stroke-miterlimit="10" d="M899.267,1051.419
		c0,11.758-9.531,21.29-21.29,21.29h-30.664c-11.758,0-21.289-9.532-21.289-21.29v-30.663c0-11.759,9.531-21.29,21.289-21.29h30.664
		c11.759,0,21.29,9.531,21.29,21.29V1051.419z"/>
	<path fill="none" stroke="#C6C4C4" stroke-width="2" stroke-miterlimit="10" d="M1489.255,965.55c0,11.758-9.531,21.29-21.29,21.29
		h-30.663c-11.759,0-21.292-9.532-21.292-21.29v-30.664c0-11.758,9.533-21.29,21.292-21.29h30.663c11.759,0,21.29,9.532,21.29,21.29
		V965.55z"/>
	<path fill="none" stroke="#C6C4C4" stroke-width="2" stroke-miterlimit="10" d="M1404.971,965.55c0,11.758-9.532,21.29-21.29,21.29
		h-30.664c-11.758,0-21.289-9.532-21.289-21.29v-30.664c0-11.758,9.531-21.29,21.289-21.29h30.664c11.758,0,21.29,9.532,21.29,21.29
		V965.55z"/>
	<path fill="none" stroke="#C6C4C4" stroke-width="2" stroke-miterlimit="10" d="M1320.687,965.55c0,11.758-9.531,21.29-21.29,21.29
		h-30.663c-11.759,0-21.291-9.532-21.291-21.29v-30.664c0-11.758,9.532-21.29,21.291-21.29h30.663c11.759,0,21.29,9.532,21.29,21.29
		V965.55z"/>
	<path fill="none" stroke="#C6C4C4" stroke-width="2" stroke-miterlimit="10" d="M1236.402,965.55c0,11.758-9.53,21.29-21.29,21.29
		h-30.663c-11.759,0-21.29-9.532-21.29-21.29v-30.664c0-11.758,9.531-21.29,21.29-21.29h30.663c11.76,0,21.29,9.532,21.29,21.29
		V965.55z"/>
	<path fill="none" stroke="#C6C4C4" stroke-width="2" stroke-miterlimit="10" d="M1152.118,965.55c0,11.758-9.531,21.29-21.29,21.29
		h-30.663c-11.759,0-21.29-9.532-21.29-21.29v-30.664c0-11.758,9.531-21.29,21.29-21.29h30.663c11.759,0,21.29,9.532,21.29,21.29
		V965.55z"/>
	<path fill="none" stroke="#3270B0" stroke-width="2" stroke-miterlimit="10" d="M1067.834,965.55c0,11.758-9.53,21.29-21.289,21.29
		h-30.663c-11.76,0-21.291-9.532-21.291-21.29v-30.664c0-11.758,9.531-21.29,21.291-21.29h30.663
		c11.759,0,21.289,9.532,21.289,21.29V965.55z"/>
	<path fill="none" stroke="#E8353E" stroke-width="2" stroke-miterlimit="10" d="M983.551,965.55c0,11.758-9.531,21.29-21.29,21.29
		h-30.663c-11.759,0-21.29-9.532-21.29-21.29v-30.664c0-11.758,9.531-21.29,21.29-21.29h30.663c11.759,0,21.29,9.532,21.29,21.29
		V965.55z"/>
	<path fill="none" stroke="#C6C4C4" stroke-width="2" stroke-miterlimit="10" d="M899.267,965.55c0,11.758-9.531,21.29-21.29,21.29
		h-30.664c-11.758,0-21.289-9.532-21.289-21.29v-30.664c0-11.758,9.531-21.29,21.289-21.29h30.664c11.759,0,21.29,9.532,21.29,21.29
		V965.55z"/>
</g>
<g>
	<g>
		<circle fill="none" stroke="#4EA1D9" stroke-width="3" stroke-miterlimit="10" cx="374.371" cy="1271.66" r="26.871"/>
		<g>
			<path fill="#4EA1D9" d="M395.193,1265.601c0.196,0.583-0.187,1.237-0.854,1.461l-20.377,6.834
				c-0.667,0.222-1.367-0.068-1.562-0.652l-0.177-0.527c-0.195-0.584,0.186-1.238,0.854-1.46l20.378-6.835
				c0.667-0.222,1.366,0.069,1.562,0.651L395.193,1265.601z"/>
			<path fill="#4EA1D9" d="M368.623,1257.422c0.821-0.321,1.635-0.202,1.819,0.269l5.638,14.353
				c0.184,0.471-0.331,1.111-1.151,1.434l-0.743,0.291c-0.82,0.322-1.634,0.203-1.818-0.268l-5.638-14.353
				c-0.185-0.471,0.33-1.112,1.152-1.433L368.623,1257.422z"/>
		</g>
	</g>
	<path fill="#4EA1D9" d="M354.688,1239.25c-3.486,0-6.313,2.826-6.313,6.313c0,1.703,0.678,3.246,1.775,4.382l10.337-6.875
		C359.52,1240.823,357.288,1239.25,354.688,1239.25z"/>
	<path fill="#4EA1D9" d="M395.174,1239.25c3.486,0,6.313,2.826,6.313,6.313c0,1.703-0.678,3.246-1.775,4.382l-10.336-6.875
		C390.342,1240.823,392.573,1239.25,395.174,1239.25z"/>
</g>
<rect x="78" y="1246" fill="#4EA1D9" width="92" height="44"/>
<rect x="79.5" y="1247.5" fill="none" stroke="#FEFFFF" stroke-miterlimit="10" width="89" height="41"/>
<text transform="matrix(1 0 0 1 94.334 1274.3574)" fill="#FFFFFF" font-family="'FZCQJW--GB1-0'" font-size="24.5583">19:49</text>
</svg>
