<?xml version="1.0" encoding="utf-8"?>
<!-- Generator: Adobe Illustrator 16.0.0, SVG Export Plug-In . SVG Version: 6.00 Build 0)  -->
<!DOCTYPE svg PUBLIC "-//W3C//DTD SVG 1.1//EN" "http://www.w3.org/Graphics/SVG/1.1/DTD/svg11.dtd">
<svg version="1.1" id="图层_1" xmlns="http://www.w3.org/2000/svg" xmlns:xlink="http://www.w3.org/1999/xlink" x="0px" y="0px"
	 width="750px" height="1334px" viewBox="0 0 750 1334" enable-background="new 0 0 750 1334" xml:space="preserve">
<rect x="1" y="838" fill="#FFFFFF" width="750" height="496"/>
<rect x="0.5" y="300.5" fill="#979595" stroke="#040000" stroke-miterlimit="10" width="750" height="537"/>
<g>
	<line fill="none" stroke="#3270B0" stroke-width="3" stroke-miterlimit="10" x1="0.986" y1="898.761" x2="750.987" y2="898.761"/>
	<g>
		<circle fill="#3270B0" cx="66.583" cy="871.736" r="21.729"/>
		<g>
			<g>
				<path fill="#FFFFFF" d="M80.636,862.07c0.575,0.575,0.574,1.508,0,2.082l-17.571,17.572c-0.575,0.575-1.508,0.575-2.082,0
					l-0.521-0.521c-0.575-0.575-0.575-1.508,0-2.083l17.571-17.571c0.576-0.575,1.508-0.575,2.083,0L80.636,862.07z"/>
				<path fill="#FFFFFF" d="M53.249,870.871c0.575-0.575,1.286-0.796,1.588-0.494l9.239,9.238c0.303,0.303,0.081,1.014-0.494,1.589
					l-0.521,0.521c-0.575,0.575-1.286,0.796-1.589,0.494l-9.239-9.238c-0.302-0.303-0.08-1.015,0.495-1.59L53.249,870.871z"/>
			</g>
		</g>
	</g>
	<text transform="matrix(1 0 0 1 605.6914 883.4033)" fill="#040000" font-family="'HYg2gb3'" font-size="25.8404">11/1325</text>
	<text transform="matrix(1 0 0 1 232.5762 883.4033)" fill="#040000" font-family="'HYg2gb3'" font-size="25.8404">7</text>
	<text transform="matrix(1 0 0 1 244.2104 958.168)" fill="#040000" font-family="'HYg2gb3'" font-size="25.8404">3</text>
	<text transform="matrix(1 0 0 1 158.9365 958.168)" fill="#040000" font-family="'HYg2gb3'" font-size="25.8404">2</text>
	<text transform="matrix(1 0 0 1 73.6641 958.168)" fill="#040000" font-family="'HYg2gb3'" font-size="25.8404">1</text>
	<text transform="matrix(1 0 0 1 107.7725 882.8867)" fill="#040000" font-family="'HYg2gb3'" font-size="25.8404">6</text>
	<g>
		<circle fill="#E8353E" cx="193.871" cy="871.736" r="21.728"/>
		<g>
			<g>
				<path fill="#FFFFFF" d="M202.364,863.325c0.575,0.576,0.575,1.508,0,2.083l-17.57,17.571c-0.575,0.575-1.508,0.575-2.083,0
					l-0.521-0.521c-0.574-0.575-0.574-1.508,0-2.083l17.572-17.571c0.575-0.575,1.508-0.575,2.083,0L202.364,863.325z"/>
				<path fill="#FFFFFF" d="M182.711,862.805c0.576-0.576,1.508-0.576,2.083,0l17.571,17.57c0.575,0.576,0.575,1.509-0.001,2.084
					l-0.52,0.521c-0.574,0.574-1.508,0.574-2.083,0l-17.571-17.572c-0.576-0.574-0.576-1.507-0.001-2.082L182.711,862.805z"/>
			</g>
		</g>
	</g>
	<path fill="none" stroke="#C6C4C4" stroke-width="2" stroke-miterlimit="10" d="M707.255,1309.027
		c0,11.758-9.531,21.29-21.29,21.29h-30.663c-11.759,0-21.292-9.532-21.292-21.29v-30.664c0-11.758,9.533-21.29,21.292-21.29h30.663
		c11.759,0,21.29,9.532,21.29,21.29V1309.027z"/>
	<path fill="none" stroke="#C6C4C4" stroke-width="2" stroke-miterlimit="10" d="M622.971,1309.027
		c0,11.758-9.532,21.29-21.29,21.29h-30.664c-11.758,0-21.289-9.532-21.289-21.29v-30.664c0-11.758,9.531-21.29,21.289-21.29h30.664
		c11.758,0,21.29,9.532,21.29,21.29V1309.027z"/>
	<path fill="none" stroke="#C6C4C4" stroke-width="2" stroke-miterlimit="10" d="M538.687,1309.027
		c0,11.758-9.531,21.29-21.29,21.29h-30.663c-11.759,0-21.291-9.532-21.291-21.29v-30.664c0-11.758,9.532-21.29,21.291-21.29h30.663
		c11.759,0,21.29,9.532,21.29,21.29V1309.027z"/>
	<path fill="none" stroke="#C6C4C4" stroke-width="2" stroke-miterlimit="10" d="M454.402,1309.027c0,11.758-9.53,21.29-21.29,21.29
		h-30.663c-11.759,0-21.29-9.532-21.29-21.29v-30.664c0-11.758,9.531-21.29,21.29-21.29h30.663c11.76,0,21.29,9.532,21.29,21.29
		V1309.027z"/>
	<path fill="none" stroke="#C6C4C4" stroke-width="2" stroke-miterlimit="10" d="M370.118,1309.027
		c0,11.758-9.531,21.29-21.29,21.29h-30.663c-11.759,0-21.29-9.532-21.29-21.29v-30.664c0-11.758,9.531-21.29,21.29-21.29h30.663
		c11.759,0,21.29,9.532,21.29,21.29V1309.027z"/>
	<path fill="none" stroke="#C6C4C4" stroke-width="2" stroke-miterlimit="10" d="M285.834,1309.027
		c0,11.758-9.53,21.29-21.289,21.29h-30.663c-11.76,0-21.291-9.532-21.291-21.29v-30.664c0-11.758,9.531-21.29,21.291-21.29h30.663
		c11.759,0,21.289,9.532,21.289,21.29V1309.027z"/>
	<path fill="none" stroke="#C6C4C4" stroke-width="2" stroke-miterlimit="10" d="M201.551,1309.027
		c0,11.758-9.531,21.29-21.29,21.29h-30.663c-11.759,0-21.29-9.532-21.29-21.29v-30.664c0-11.758,9.531-21.29,21.29-21.29h30.663
		c11.759,0,21.29,9.532,21.29,21.29V1309.027z"/>
	<path fill="none" stroke="#C6C4C4" stroke-width="2" stroke-miterlimit="10" d="M117.267,1309.027
		c0,11.758-9.531,21.29-21.29,21.29H65.313c-11.758,0-21.289-9.532-21.289-21.29v-30.664c0-11.758,9.531-21.29,21.289-21.29h30.664
		c11.759,0,21.29,9.532,21.29,21.29V1309.027z"/>
	<path fill="none" stroke="#C6C4C4" stroke-width="2" stroke-miterlimit="10" d="M707.255,1223.157
		c0,11.759-9.531,21.29-21.29,21.29h-30.663c-11.759,0-21.292-9.531-21.292-21.29v-30.663c0-11.759,9.533-21.29,21.292-21.29h30.663
		c11.759,0,21.29,9.531,21.29,21.29V1223.157z"/>
	<path fill="none" stroke="#C6C4C4" stroke-width="2" stroke-miterlimit="10" d="M622.971,1223.157
		c0,11.759-9.532,21.29-21.29,21.29h-30.664c-11.758,0-21.289-9.531-21.289-21.29v-30.663c0-11.759,9.531-21.29,21.289-21.29h30.664
		c11.758,0,21.29,9.531,21.29,21.29V1223.157z"/>
	<path fill="none" stroke="#C6C4C4" stroke-width="2" stroke-miterlimit="10" d="M538.687,1223.157
		c0,11.759-9.531,21.29-21.29,21.29h-30.663c-11.759,0-21.291-9.531-21.291-21.29v-30.663c0-11.759,9.532-21.29,21.291-21.29h30.663
		c11.759,0,21.29,9.531,21.29,21.29V1223.157z"/>
	<path fill="none" stroke="#C6C4C4" stroke-width="2" stroke-miterlimit="10" d="M454.402,1223.157c0,11.759-9.53,21.29-21.29,21.29
		h-30.663c-11.759,0-21.29-9.531-21.29-21.29v-30.663c0-11.759,9.531-21.29,21.29-21.29h30.663c11.76,0,21.29,9.531,21.29,21.29
		V1223.157z"/>
	<path fill="none" stroke="#C6C4C4" stroke-width="2" stroke-miterlimit="10" d="M370.118,1223.157
		c0,11.759-9.531,21.29-21.29,21.29h-30.663c-11.759,0-21.29-9.531-21.29-21.29v-30.663c0-11.759,9.531-21.29,21.29-21.29h30.663
		c11.759,0,21.29,9.531,21.29,21.29V1223.157z"/>
	<path fill="none" stroke="#C6C4C4" stroke-width="2" stroke-miterlimit="10" d="M285.834,1223.157
		c0,11.759-9.53,21.29-21.289,21.29h-30.663c-11.76,0-21.291-9.531-21.291-21.29v-30.663c0-11.759,9.531-21.29,21.291-21.29h30.663
		c11.759,0,21.289,9.531,21.289,21.29V1223.157z"/>
	<path fill="none" stroke="#C6C4C4" stroke-width="2" stroke-miterlimit="10" d="M201.551,1223.157
		c0,11.759-9.531,21.29-21.29,21.29h-30.663c-11.759,0-21.29-9.531-21.29-21.29v-30.663c0-11.759,9.531-21.29,21.29-21.29h30.663
		c11.759,0,21.29,9.531,21.29,21.29V1223.157z"/>
	<path fill="none" stroke="#C6C4C4" stroke-width="2" stroke-miterlimit="10" d="M117.267,1223.157
		c0,11.759-9.531,21.29-21.29,21.29H65.313c-11.758,0-21.289-9.531-21.289-21.29v-30.663c0-11.759,9.531-21.29,21.289-21.29h30.664
		c11.759,0,21.29,9.531,21.29,21.29V1223.157z"/>
	<path fill="none" stroke="#C6C4C4" stroke-width="2" stroke-miterlimit="10" d="M707.255,1137.288
		c0,11.758-9.531,21.291-21.29,21.291h-30.663c-11.759,0-21.292-9.533-21.292-21.291v-30.664c0-11.757,9.533-21.29,21.292-21.29
		h30.663c11.759,0,21.29,9.533,21.29,21.29V1137.288z"/>
	<path fill="none" stroke="#C6C4C4" stroke-width="2" stroke-miterlimit="10" d="M622.971,1137.288
		c0,11.758-9.532,21.291-21.29,21.291h-30.664c-11.758,0-21.289-9.533-21.289-21.291v-30.664c0-11.757,9.531-21.29,21.289-21.29
		h30.664c11.758,0,21.29,9.533,21.29,21.29V1137.288z"/>
	<path fill="none" stroke="#C6C4C4" stroke-width="2" stroke-miterlimit="10" d="M538.687,1137.288
		c0,11.758-9.531,21.291-21.29,21.291h-30.663c-11.759,0-21.291-9.533-21.291-21.291v-30.664c0-11.757,9.532-21.29,21.291-21.29
		h30.663c11.759,0,21.29,9.533,21.29,21.29V1137.288z"/>
	<path fill="none" stroke="#C6C4C4" stroke-width="2" stroke-miterlimit="10" d="M454.402,1137.288
		c0,11.758-9.53,21.291-21.29,21.291h-30.663c-11.759,0-21.29-9.533-21.29-21.291v-30.664c0-11.757,9.531-21.29,21.29-21.29h30.663
		c11.76,0,21.29,9.533,21.29,21.29V1137.288z"/>
	<path fill="none" stroke="#C6C4C4" stroke-width="2" stroke-miterlimit="10" d="M370.118,1137.288
		c0,11.758-9.531,21.291-21.29,21.291h-30.663c-11.759,0-21.29-9.533-21.29-21.291v-30.664c0-11.757,9.531-21.29,21.29-21.29h30.663
		c11.759,0,21.29,9.533,21.29,21.29V1137.288z"/>
	<path fill="none" stroke="#C6C4C4" stroke-width="2" stroke-miterlimit="10" d="M285.834,1137.288
		c0,11.758-9.53,21.291-21.289,21.291h-30.663c-11.76,0-21.291-9.533-21.291-21.291v-30.664c0-11.757,9.531-21.29,21.291-21.29
		h30.663c11.759,0,21.289,9.533,21.289,21.29V1137.288z"/>
	<path fill="none" stroke="#C6C4C4" stroke-width="2" stroke-miterlimit="10" d="M201.551,1137.288
		c0,11.758-9.531,21.291-21.29,21.291h-30.663c-11.759,0-21.29-9.533-21.29-21.291v-30.664c0-11.757,9.531-21.29,21.29-21.29h30.663
		c11.759,0,21.29,9.533,21.29,21.29V1137.288z"/>
	<path fill="none" stroke="#C6C4C4" stroke-width="2" stroke-miterlimit="10" d="M117.267,1137.288
		c0,11.758-9.531,21.291-21.29,21.291H65.313c-11.758,0-21.289-9.533-21.289-21.291v-30.664c0-11.757,9.531-21.29,21.289-21.29
		h30.664c11.759,0,21.29,9.533,21.29,21.29V1137.288z"/>
	<path fill="none" stroke="#C6C4C4" stroke-width="2" stroke-miterlimit="10" d="M707.255,1051.419
		c0,11.758-9.531,21.29-21.29,21.29h-30.663c-11.759,0-21.292-9.532-21.292-21.29v-30.663c0-11.759,9.533-21.29,21.292-21.29h30.663
		c11.759,0,21.29,9.531,21.29,21.29V1051.419z"/>
	<path fill="none" stroke="#C6C4C4" stroke-width="2" stroke-miterlimit="10" d="M622.971,1051.419
		c0,11.758-9.532,21.29-21.29,21.29h-30.664c-11.758,0-21.289-9.532-21.289-21.29v-30.663c0-11.759,9.531-21.29,21.289-21.29h30.664
		c11.758,0,21.29,9.531,21.29,21.29V1051.419z"/>
	<path fill="none" stroke="#C6C4C4" stroke-width="2" stroke-miterlimit="10" d="M538.687,1051.419
		c0,11.758-9.531,21.29-21.29,21.29h-30.663c-11.759,0-21.291-9.532-21.291-21.29v-30.663c0-11.759,9.532-21.29,21.291-21.29h30.663
		c11.759,0,21.29,9.531,21.29,21.29V1051.419z"/>
	<path fill="none" stroke="#C6C4C4" stroke-width="2" stroke-miterlimit="10" d="M454.402,1051.419c0,11.758-9.53,21.29-21.29,21.29
		h-30.663c-11.759,0-21.29-9.532-21.29-21.29v-30.663c0-11.759,9.531-21.29,21.29-21.29h30.663c11.76,0,21.29,9.531,21.29,21.29
		V1051.419z"/>
	<path fill="none" stroke="#C6C4C4" stroke-width="2" stroke-miterlimit="10" d="M370.118,1051.419
		c0,11.758-9.531,21.29-21.29,21.29h-30.663c-11.759,0-21.29-9.532-21.29-21.29v-30.663c0-11.759,9.531-21.29,21.29-21.29h30.663
		c11.759,0,21.29,9.531,21.29,21.29V1051.419z"/>
	<path fill="none" stroke="#C6C4C4" stroke-width="2" stroke-miterlimit="10" d="M285.834,1051.419
		c0,11.758-9.53,21.29-21.289,21.29h-30.663c-11.76,0-21.291-9.532-21.291-21.29v-30.663c0-11.759,9.531-21.29,21.291-21.29h30.663
		c11.759,0,21.289,9.531,21.289,21.29V1051.419z"/>
	<path fill="none" stroke="#C6C4C4" stroke-width="2" stroke-miterlimit="10" d="M201.551,1051.419
		c0,11.758-9.531,21.29-21.29,21.29h-30.663c-11.759,0-21.29-9.532-21.29-21.29v-30.663c0-11.759,9.531-21.29,21.29-21.29h30.663
		c11.759,0,21.29,9.531,21.29,21.29V1051.419z"/>
	<path fill="none" stroke="#C6C4C4" stroke-width="2" stroke-miterlimit="10" d="M117.267,1051.419
		c0,11.758-9.531,21.29-21.29,21.29H65.313c-11.758,0-21.289-9.532-21.289-21.29v-30.663c0-11.759,9.531-21.29,21.289-21.29h30.664
		c11.759,0,21.29,9.531,21.29,21.29V1051.419z"/>
	<path fill="none" stroke="#C6C4C4" stroke-width="2" stroke-miterlimit="10" d="M707.255,965.55c0,11.758-9.531,21.29-21.29,21.29
		h-30.663c-11.759,0-21.292-9.532-21.292-21.29v-30.664c0-11.758,9.533-21.29,21.292-21.29h30.663c11.759,0,21.29,9.532,21.29,21.29
		V965.55z"/>
	<path fill="none" stroke="#C6C4C4" stroke-width="2" stroke-miterlimit="10" d="M622.971,965.55c0,11.758-9.532,21.29-21.29,21.29
		h-30.664c-11.758,0-21.289-9.532-21.289-21.29v-30.664c0-11.758,9.531-21.29,21.289-21.29h30.664c11.758,0,21.29,9.532,21.29,21.29
		V965.55z"/>
	<path fill="none" stroke="#C6C4C4" stroke-width="2" stroke-miterlimit="10" d="M538.687,965.55c0,11.758-9.531,21.29-21.29,21.29
		h-30.663c-11.759,0-21.291-9.532-21.291-21.29v-30.664c0-11.758,9.532-21.29,21.291-21.29h30.663c11.759,0,21.29,9.532,21.29,21.29
		V965.55z"/>
	<path fill="none" stroke="#C6C4C4" stroke-width="2" stroke-miterlimit="10" d="M454.402,965.55c0,11.758-9.53,21.29-21.29,21.29
		h-30.663c-11.759,0-21.29-9.532-21.29-21.29v-30.664c0-11.758,9.531-21.29,21.29-21.29h30.663c11.76,0,21.29,9.532,21.29,21.29
		V965.55z"/>
	<path fill="none" stroke="#C6C4C4" stroke-width="2" stroke-miterlimit="10" d="M370.118,965.55c0,11.758-9.531,21.29-21.29,21.29
		h-30.663c-11.759,0-21.29-9.532-21.29-21.29v-30.664c0-11.758,9.531-21.29,21.29-21.29h30.663c11.759,0,21.29,9.532,21.29,21.29
		V965.55z"/>
	<path fill="none" stroke="#3270B0" stroke-width="2" stroke-miterlimit="10" d="M285.834,965.55c0,11.758-9.53,21.29-21.289,21.29
		h-30.663c-11.76,0-21.291-9.532-21.291-21.29v-30.664c0-11.758,9.531-21.29,21.291-21.29h30.663
		c11.759,0,21.289,9.532,21.289,21.29V965.55z"/>
	<path fill="none" stroke="#E8353E" stroke-width="2" stroke-miterlimit="10" d="M201.551,965.55c0,11.758-9.531,21.29-21.29,21.29
		h-30.663c-11.759,0-21.29-9.532-21.29-21.29v-30.664c0-11.758,9.531-21.29,21.29-21.29h30.663c11.759,0,21.29,9.532,21.29,21.29
		V965.55z"/>
	<path fill="none" stroke="#C6C4C4" stroke-width="2" stroke-miterlimit="10" d="M117.267,965.55c0,11.758-9.531,21.29-21.29,21.29
		H65.313c-11.758,0-21.289-9.532-21.289-21.29v-30.664c0-11.758,9.531-21.29,21.289-21.29h30.664c11.759,0,21.29,9.532,21.29,21.29
		V965.55z"/>
</g>
</svg>
